<svg xmlns="http://www.w3.org/2000/svg" xmlns:xlink="http://www.w3.org/1999/xlink" viewBox="0 0 500 500"><defs><clipPath id="clip-path--inject-53"><path d="M234,303.86s11.61-22.18,15.59-31.19,6.42-14.9,9.71-20.28,0-24.6-3.12-29.8-9.45-10.32-12.27-8.71-4.71,14.77-4.54,20.14-3.47,18-5.2,25.31-13.34,26.16-14.21,34.48S224.45,309.06,234,303.86Z" style="fill:#68C8A8;stroke:#263238;stroke-linecap:round;stroke-linejoin:round"></path></clipPath><clipPath id="clip-path-2--inject-53"><path d="M279.86,181.53s2.51,8.63.94,13.19-7.38,7.22-15.39,10.36-19.16,3.46-21.52,8.8,8.33,30.78,9.58,40.51,5.82,21.68,7.39,27.49,1.72,7.38,1.72,8.32S254.1,324,251.43,335.58a166.18,166.18,0,0,0-3.29,25.29H350.53s-4.87-33.29-10.21-47-14.13-24.65-14.13-29.52,12.24-42.09,14.13-51.67,6.28-14.45,2.67-21S331.84,203,331.84,203L321,197.86s-14.29-3.14-15.39-4.4-4.08-4.71-5.34-14.6a160.58,160.58,0,0,1-.94-21.05S288.5,176,279.86,181.53Z" style="fill:#68C8A8;stroke:#263238;stroke-linecap:round;stroke-linejoin:round"></path></clipPath><clipPath id="clip-path-3--inject-53"><path d="M271,202.76c.26,7.26,1.12,24.08,3.67,32.79A67.16,67.16,0,0,0,285,255.81s14.29-16.65,22.14-36.44a103.48,103.48,0,0,0,6.54-23.24c-3.71-.94-7.56-2-8.11-2.67-1.1-1.26-4.08-4.71-5.34-14.6a160.58,160.58,0,0,1-.94-21.05S288.5,176,279.86,181.53c0,0,2.51,8.63.94,13.19C279.63,198.12,276.08,200.48,271,202.76Z" style="fill:#fff;stroke:#263238;stroke-linecap:round;stroke-linejoin:round"></path></clipPath><clipPath id="clip-path-4--inject-53"><path d="M259.1,142.37s2.52,13.82,2.52,19.78,6.43,18.22,12.72,22.78,11.46,3.45,16.49-.16,10.36-9,14.13-20.89S304.65,141,302.45,135s-18.53-9.9-30-7.07S259.26,137.66,259.1,142.37Z" style="fill:#fff;stroke:#263238;stroke-linecap:round;stroke-linejoin:round"></path></clipPath><clipPath id="clip-path-5--inject-53"><path d="M254.28,127.08,251,143.25a33.2,33.2,0,0,0,8.32,2.36c4.08.47,6.6.78,6.6.78l1.72-4.39.95,4.55a25,25,0,0,0,8.63.63,44.42,44.42,0,0,1,6.6-.63l1.88-3.77.63,3.77h3.3a23.46,23.46,0,0,0,8-1.57S303,164,303,192.25s-3.46,48.21-3.46,48.21,5.81-3.3,7.07-5,5.34-15.24,5.34-15.24l.94,8.8a45.6,45.6,0,0,0,7.7-9.43c3.3-5.49,6.44-20.1,6.44-20.1l.94,3.77,8.95,3.93s-8.28-55.39-13.62-73.45-8-25-18.22-32.5-29.09-4.45-38.83,2.61S254.28,127.08,254.28,127.08Z" style="fill:#263238"></path></clipPath><clipPath id="clip-path-6--inject-53"><path d="M199.24,376.74l11.44,43c0,2.92,7.72,5.29,17.24,5.29s17.24-2.37,17.24-5.29l11.44-43Z" style="fill:#fff;stroke:#263238;stroke-linecap:round;stroke-linejoin:round"></path></clipPath><clipPath id="clip-path-7--inject-53"><path d="M321.32,221.57s-4.4,20.42-4.71,21.83-8.17,16-11.15,24a84,84,0,0,0-4.4,15.07c-.16,1.42-10.84,18.85-16.49,28s-13,21.36-14.76,22.77-9.58,4.08-12.1,5.34-5.18,2.67-6.91,4.87-6.12,8.16-8.63,10.05-5.5,2.51-4.56,3.92,3.3,1.73,5.81.63a54.88,54.88,0,0,0,8.64-5.49,23.19,23.19,0,0,1,2.67-1.89s-7.27,22.6-7.9,25.74a2.39,2.39,0,0,0,3.61,2.67c.94-.78,8.85-20.09,10.1-22.44s2-4.4,2.51-3.61,0,6.43-1.72,10.68-6.44,15.39-5.66,16.64,2.52-.16,4.24-2.51,4.09-6.13,5.34-7.85,2.83-3.3,7.54-6.44,7.7-9.11,9.89-16.49,1.89-11,3.3-14.14,25.91-23.71,30.94-31.72,7.69-17.9,8.32-19.63,10.21-17.12,14.29-29.68,3.93-25.13,4.72-31.25-1.58-13-7.39-15.08" style="fill:#68C8A8;stroke:#263238;stroke-linecap:round;stroke-linejoin:round"></path></clipPath><clipPath id="clip-path-8--inject-53"><path d="M221.58,240.32s3.89,10.93,4.8,13.47a12.18,12.18,0,0,1,.09,8.4c-1.09,3.17-5.7,20.61-8.5,28.12s4.16,16.63,7.23,18.26,7.23-1.09,9.94-7,2.08-16.09,2-23.69-1.71-18.62-1.53-20.52,2.53-4.34,1.71-9.49-1.26-6.87-1.26-8.86.36-6.51-3.26-7.68S221.4,233.35,221.58,240.32Z" style="fill:#fff;stroke:#263238;stroke-linecap:round;stroke-linejoin:round"></path></clipPath><clipPath id="clip-path-9--inject-53"><path d="M235.14,301.61c2.72-5.88,2.08-16.09,2-23.69,0-2.2-.18-4.68-.38-7.15-6.47,4.6-10.66,2.43-12.85.22-1.85,6.48-4.22,14.74-5.93,19.32-2.8,7.5,4.16,16.63,7.23,18.26S232.43,307.48,235.14,301.61Z" style="fill:#68C8A8;stroke:#263238;stroke-linecap:round;stroke-linejoin:round"></path></clipPath></defs><g id="Window--inject-53"><rect x="291.24" y="147.02" width="45.87" height="57.34" style="fill:#68C8A8"></rect><rect x="348.58" y="147.02" width="45.87" height="57.34" style="fill:#68C8A8"></rect><rect x="291.24" y="213.75" width="45.87" height="57.34" style="fill:#68C8A8"></rect><rect x="348.58" y="213.75" width="45.87" height="57.34" style="fill:#68C8A8"></rect><rect x="291.24" y="280.47" width="45.87" height="57.34" style="fill:#68C8A8"></rect><rect x="348.58" y="280.47" width="45.87" height="57.34" style="fill:#68C8A8"></rect><path d="M327.66,87.6h31.4A35.38,35.38,0,0,1,394.45,123v15.7a0,0,0,0,1,0,0H292.28a0,0,0,0,1,0,0V123A35.38,35.38,0,0,1,327.66,87.6Z" style="fill:#68C8A8"></path><g style="opacity:0.54"><rect x="291.24" y="147.02" width="45.87" height="57.34" style="fill:#fff"></rect><rect x="348.58" y="147.02" width="45.87" height="57.34" style="fill:#fff"></rect><rect x="291.24" y="213.75" width="45.87" height="57.34" style="fill:#fff"></rect><rect x="348.58" y="213.75" width="45.87" height="57.34" style="fill:#fff"></rect><rect x="291.24" y="280.47" width="45.87" height="57.34" style="fill:#fff"></rect><rect x="348.58" y="280.47" width="45.87" height="57.34" style="fill:#fff"></rect><path d="M327.66,87.6h31.4A35.38,35.38,0,0,1,394.45,123v15.7a0,0,0,0,1,0,0H292.28a0,0,0,0,1,0,0V123A35.38,35.38,0,0,1,327.66,87.6Z" style="fill:#fff"></path></g></g><g id="Plants--inject-53"><path d="M103.86,158.6v10.27h-3.22V157.61a4.82,4.82,0,0,0-4.82-4.82h0A4.82,4.82,0,0,0,91,157.61v14H88v-7.42a3.46,3.46,0,0,0-3.47-3.46h0a3.46,3.46,0,0,0-3.46,3.46v11.38h0a2.22,2.22,0,0,0,2.23,2.22H91v8.42h9.64V175.3h6.68a2.72,2.72,0,0,0,2.72-2.72h0v-14a3.09,3.09,0,0,0-3.09-3.09h0A3.09,3.09,0,0,0,103.86,158.6Z" style="fill:#68C8A8"></path><rect x="87.44" y="185.51" width="16.95" height="15.72" style="fill:#ccc"></rect><rect x="86.43" y="181.78" width="18.97" height="5.06" style="fill:#ccc"></rect><polygon points="99.08 243.91 92.89 234.01 97.02 234.42 96.6 228.65 101.14 234.42 101.55 216.69 104.85 228.24 108.97 213.4 110.21 230.71 118.45 222.06 112.68 235.66 118.45 233.6 107.32 245.97 99.08 243.91" style="fill:#68C8A8"></polygon><rect x="95.92" y="245.25" width="16.95" height="15.72" style="fill:#ccc"></rect><rect x="94.91" y="241.53" width="18.97" height="5.06" style="fill:#ccc"></rect><polygon points="186.9 243.91 180.71 234.01 184.83 234.42 184.42 228.65 188.96 234.42 189.37 216.69 192.67 228.24 196.79 213.4 198.03 230.71 206.27 222.06 200.5 235.66 206.27 233.6 195.14 245.97 186.9 243.91" style="fill:#68C8A8"></polygon><rect x="183.74" y="245.25" width="16.95" height="15.72" style="fill:#ccc"></rect><rect x="182.73" y="241.53" width="18.97" height="5.06" style="fill:#ccc"></rect><path d="M144,241.85a54.11,54.11,0,0,1-8.66-.83c-4.54-.82-5.36-3.71-3.3-4.53s9.07.41,9.07.41-9.07,0-10.31-5.36,3.3-4.95,4.54-3.71,4.53,3.71,4.53,3.71-7-7-7-11.13,4.54-3.71,5.78-1.24,4.12,9.89,4.12,9.89-4.54-13.19,1.24-11.13,4.53,8.25,4.53,9.48v5.36s5.77-11.13,7.84-8.65-2.89,7-2.89,7,2.89-10.72,9.89-10.31.42,5.36-.82,7.42-6.6,6.6-6.6,6.6,12-5.36,17.73-5.36.41,6.59-2.88,7-9.49,1.23-9.49,1.23,8.25,3.71,4.95,4.54-11.54-.83-11.54-.83Z" style="fill:#68C8A8"></path><rect x="140.44" y="245.25" width="16.95" height="15.72" style="fill:#ccc"></rect><rect x="139.44" y="241.53" width="18.97" height="5.06" style="fill:#ccc"></rect><path d="M169.53,165.75v7.61h2.38V165a3.57,3.57,0,0,1,3.58-3.57h0a3.57,3.57,0,0,1,3.57,3.57v10.35h2.2v-5.49a2.57,2.57,0,0,1,2.57-2.57h0a2.57,2.57,0,0,1,2.56,2.57v8.43h0a1.64,1.64,0,0,1-1.65,1.64h-5.68v6.24h-7.15v-8.07H167a2,2,0,0,1-2-2h0V165.75a2.3,2.3,0,0,1,2.29-2.29h0A2.29,2.29,0,0,1,169.53,165.75Z" style="fill:#68C8A8"></path><rect x="166.23" y="185.51" width="16.95" height="15.72" style="fill:#ccc"></rect><rect x="165.22" y="181.78" width="18.97" height="5.06" style="fill:#ccc"></rect><path d="M104.07,285.4V293h2.39v-8.34A3.57,3.57,0,0,1,110,281.1h0a3.57,3.57,0,0,1,3.57,3.57V295h2.2v-5.49a2.57,2.57,0,0,1,2.57-2.57h0a2.57,2.57,0,0,1,2.56,2.57V298h0a1.65,1.65,0,0,1-1.65,1.65H113.6v6.23h-7.14v-8.07h-4.95a2,2,0,0,1-2-2h0V285.4a2.3,2.3,0,0,1,2.29-2.29h0A2.29,2.29,0,0,1,104.07,285.4Z" style="fill:#68C8A8"></path><rect x="100.77" y="305.16" width="16.95" height="15.72" style="fill:#ccc"></rect><rect x="99.76" y="301.44" width="18.97" height="5.06" style="fill:#ccc"></rect><path d="M188.16,285.4V293h2.38v-8.34a3.57,3.57,0,0,1,3.57-3.57h0a3.57,3.57,0,0,1,3.57,3.57V295h2.2v-5.49a2.57,2.57,0,0,1,2.57-2.57h0a2.56,2.56,0,0,1,2.56,2.57V298h0a1.64,1.64,0,0,1-1.64,1.65h-5.69v6.23h-7.14v-8.07h-4.95a2,2,0,0,1-2-2h0V285.4a2.3,2.3,0,0,1,2.3-2.29h0A2.3,2.3,0,0,1,188.16,285.4Z" style="fill:#68C8A8"></path><rect x="184.85" y="305.16" width="16.95" height="15.72" style="fill:#ccc"></rect><rect x="183.84" y="301.44" width="18.97" height="5.06" style="fill:#ccc"></rect><path d="M145,304.83a29.87,29.87,0,0,0-5.91-7c-3.75-3.22-4.83-10.73-4.83-10.73s1.61-.53,4.83,2.68a33.12,33.12,0,0,1,5.37,7.52s-2.15-9.12-2.15-12.34,5.37-11.27,5.37-11.27,1.61,5.9,1.61,8.58v12.34s3.22-6.43,7.51-10.19,10.73-5.37,10.73-5.37.54,6.44-1.61,8.59-11.27,9.66-11.27,9.66L167,295.17l-12.34,7.51s-2.3,3-4.29,2.15S145,304.83,145,304.83Z" style="fill:#68C8A8"></path><rect x="139.93" y="305.16" width="16.95" height="15.72" style="fill:#ccc"></rect><rect x="138.93" y="301.44" width="18.97" height="5.06" style="fill:#ccc"></rect><path d="M198,182.06s-5.36-4.53-7-6.18-5.77-6.19-2.48-4.54a50.78,50.78,0,0,1,7,4.54s-2.88-8.66-2.88-11.13,4.12-.83,6.18,3.29,3.3,7,3.3,7-3.71-16.49-.41-17.31,4.12,10.72,4.12,10.72,2.89-20.21,7-15.67S210,169.28,210,169.28s8.25-5.77,6.6-1.24a11.24,11.24,0,0,1-6.18,6.19s11.95-2.89,8.65,1.65-14,8.24-14,8.24Z" style="fill:#68C8A8"></path><rect x="195.46" y="185.51" width="16.95" height="15.72" style="fill:#ccc"></rect><rect x="194.45" y="181.78" width="18.97" height="5.06" style="fill:#ccc"></rect><path d="M132.06,182.06s-5.36-4.53-7-6.18-5.77-6.19-2.47-4.54a50.78,50.78,0,0,1,7,4.54s-2.89-8.66-2.89-11.13,4.12-.83,6.18,3.29,3.3,7,3.3,7-3.71-16.49-.41-17.31,4.12,10.72,4.12,10.72,2.89-20.21,7-15.67S144,169.28,144,169.28s8.24-5.77,6.59-1.24a11.24,11.24,0,0,1-6.18,6.19s12-2.89,8.66,1.65-14,8.24-14,8.24Z" style="fill:#68C8A8"></path><rect x="129.49" y="185.51" width="16.95" height="15.72" style="fill:#ccc"></rect><rect x="128.49" y="181.78" width="18.97" height="5.06" style="fill:#ccc"></rect><path d="M84.16,360.4V328.09H224.32V360.4h5.32v-160H78.84v160Zm0-152.4H224.32v52.43H84.16Zm0,60H224.32v52.43H84.16Z" style="fill:#ccc"></path></g><g id="Spotlights--inject-53"><rect x="89.55" y="184.04" width="3.24" height="176.7" transform="translate(182.33 544.77) rotate(180)" style="fill:#263238"></rect><path d="M85.29,177.4c3.88-6.49,10.58-9.75,15.69-7.94l26.27,1.27L98.47,217l-13.73-22.9,0-.07C81.69,190.09,81.73,183.34,85.29,177.4Z" style="fill:#263238"></path><ellipse cx="119.06" cy="198.02" rx="29.01" ry="21.21" transform="translate(-112 198.58) rotate(-59.12)" style="fill:#fff"></ellipse><rect x="87.23" y="255.27" width="7.4" height="11.1" transform="translate(181.87 521.65) rotate(180)" style="fill:#263238"></rect><rect x="87.23" y="323.27" width="7.4" height="11.1" transform="translate(181.87 657.64) rotate(180)" style="fill:#263238"></rect><rect x="421" y="184.04" width="3.24" height="176.7" style="fill:#263238"></rect><path d="M428.5,177.4c-3.88-6.49-10.59-9.75-15.69-7.94l-26.27,1.27L415.31,217l13.74-22.9L429,194C432.1,190.09,432.05,183.34,428.5,177.4Z" style="fill:#263238"></path><ellipse cx="394.73" cy="198.02" rx="21.21" ry="29.01" transform="translate(-45.68 230.65) rotate(-30.88)" style="fill:#fff"></ellipse><rect x="419.15" y="255.27" width="7.4" height="11.1" style="fill:#263238"></rect><rect x="419.15" y="323.27" width="7.4" height="11.1" style="fill:#263238"></rect></g><g id="Character--inject-53"><path d="M255.64,136.63s-1.56,39.17-2.95,53.73-2.42,22.87-2.42,22.87,12.82-.35,21.14-4.16S308.26,207.32,309,199s-1-56.5-1-56.5-5.95-14.24-6.12-15.45-28.86,0-38.05,1.27S255.64,136.63,255.64,136.63Z" style="fill:#263238"></path><path d="M234,303.86s11.61-22.18,15.59-31.19,6.42-14.9,9.71-20.28,0-24.6-3.12-29.8-9.45-10.32-12.27-8.71-4.71,14.77-4.54,20.14-3.47,18-5.2,25.31-13.34,26.16-14.21,34.48S224.45,309.06,234,303.86Z" style="fill:#68C8A8"></path><g style="clip-path:url(#clip-path--inject-53)"><path d="M255.45,245s-21.5,36-25,43-6.11,18.22,4.69,13.61,25.48-39,24.81-44.11S266,239.5,255.45,245Z" style="opacity:0.31;mix-blend-mode:multiply"></path></g><path d="M234,303.86s11.61-22.18,15.59-31.19,6.42-14.9,9.71-20.28,0-24.6-3.12-29.8-9.45-10.32-12.27-8.71-4.71,14.77-4.54,20.14-3.47,18-5.2,25.31-13.34,26.16-14.21,34.48S224.45,309.06,234,303.86Z" style="fill:none;stroke:#263238;stroke-linecap:round;stroke-linejoin:round"></path><path d="M279.86,181.53s2.51,8.63.94,13.19-7.38,7.22-15.39,10.36-19.16,3.46-21.52,8.8,8.33,30.78,9.58,40.51,5.82,21.68,7.39,27.49,1.72,7.38,1.72,8.32S254.1,324,251.43,335.58a166.18,166.18,0,0,0-3.29,25.29H350.53s-4.87-33.29-10.21-47-14.13-24.65-14.13-29.52,12.24-42.09,14.13-51.67,6.28-14.45,2.67-21S331.84,203,331.84,203L321,197.86s-14.29-3.14-15.39-4.4-4.08-4.71-5.34-14.6a160.58,160.58,0,0,1-.94-21.05S288.5,176,279.86,181.53Z" style="fill:#68C8A8"></path><g style="clip-path:url(#clip-path-2--inject-53)"><path d="M337.24,313.91c-5.33-13.66-14.13-24.65-14.13-29.52s12.25-42.09,14.13-51.67a70.44,70.44,0,0,1,2.54-8.86L318.87,241s-5.5,21-17,31.5-17,13.5-11.5,18,12,17.5,12,19.5-5.5,20,1.5,19,11-24.5,13-15.5c1.64,7.38,2.28,33.92,2.45,47.37h28.13S342.58,327.58,337.24,313.91Z" style="opacity:0.31;mix-blend-mode:multiply"></path><path d="M259.45,267s23,11,14.5,13.5S258.45,274.5,259.45,267Z" style="opacity:0.31;mix-blend-mode:multiply"></path></g><path d="M279.86,181.53s2.51,8.63.94,13.19-7.38,7.22-15.39,10.36-19.16,3.46-21.52,8.8,8.33,30.78,9.58,40.51,5.82,21.68,7.39,27.49,1.72,7.38,1.72,8.32S254.1,324,251.43,335.58a166.18,166.18,0,0,0-3.29,25.29H350.53s-4.87-33.29-10.21-47-14.13-24.65-14.13-29.52,12.24-42.09,14.13-51.67,6.28-14.45,2.67-21S331.84,203,331.84,203L321,197.86s-14.29-3.14-15.39-4.4-4.08-4.71-5.34-14.6a160.58,160.58,0,0,1-.94-21.05S288.5,176,279.86,181.53Z" style="fill:none;stroke:#263238;stroke-linecap:round;stroke-linejoin:round"></path><line x1="66.33" y1="360.87" x2="438.67" y2="360.87" style="fill:none;stroke:#263238;stroke-linecap:round;stroke-linejoin:round"></line><path d="M271,202.76c.26,7.26,1.12,24.08,3.67,32.79A67.16,67.16,0,0,0,285,255.81s14.29-16.65,22.14-36.44a103.48,103.48,0,0,0,6.54-23.24c-3.71-.94-7.56-2-8.11-2.67-1.1-1.26-4.08-4.71-5.34-14.6a160.58,160.58,0,0,1-.94-21.05S288.5,176,279.86,181.53c0,0,2.51,8.63.94,13.19C279.63,198.12,276.08,200.48,271,202.76Z" style="fill:#fff"></path><g style="clip-path:url(#clip-path-3--inject-53)"><path d="M300.27,178.86a160.58,160.58,0,0,1-.94-21.05S288.5,176,279.86,181.53c0,0,2.07,7.13,1.26,11.85,4.86.61,12.56-.14,20.52-7.72A44,44,0,0,1,300.27,178.86Z" style="fill:#68C8A8"></path><path d="M300.27,178.86a160.58,160.58,0,0,1-.94-21.05S288.5,176,279.86,181.53c0,0,2.07,7.13,1.26,11.85,4.86.61,12.56-.14,20.52-7.72A44,44,0,0,1,300.27,178.86Z" style="fill:#fff;opacity:0.5"></path></g><path d="M271,202.76c.26,7.26,1.12,24.08,3.67,32.79A67.16,67.16,0,0,0,285,255.81s14.29-16.65,22.14-36.44a103.48,103.48,0,0,0,6.54-23.24c-3.71-.94-7.56-2-8.11-2.67-1.1-1.26-4.08-4.71-5.34-14.6a160.58,160.58,0,0,1-.94-21.05S288.5,176,279.86,181.53c0,0,2.51,8.63.94,13.19C279.63,198.12,276.08,200.48,271,202.76Z" style="fill:none;stroke:#263238;stroke-linecap:round;stroke-linejoin:round"></path><path d="M274.68,235.55A67.16,67.16,0,0,0,285,255.81a154.35,154.35,0,0,0,17.46-26.26,49.41,49.41,0,0,1-29.28-.82A57.34,57.34,0,0,0,274.68,235.55Z" style="fill:#fff;stroke:#263238;stroke-linecap:round;stroke-linejoin:round"></path><path d="M259.1,142.37s2.52,13.82,2.52,19.78,6.43,18.22,12.72,22.78,11.46,3.45,16.49-.16,10.36-9,14.13-20.89S304.65,141,302.45,135s-18.53-9.9-30-7.07S259.26,137.66,259.1,142.37Z" style="fill:#fff"></path><g style="clip-path:url(#clip-path-4--inject-53)"><path d="M298.18,167.94c-1.95,10.12-6.23,14.79-12.46,18.3-1.22.68-2.33,1.23-3.33,1.68a14.45,14.45,0,0,0,8.44-3.15c5-3.61,10.36-9,14.13-20.89,3.11-9.86.87-19.08-1.25-25.35l-6.31,3.71S300.13,157.82,298.18,167.94Z" style="fill:#68C8A8"></path><path d="M298.18,167.94c-1.95,10.12-6.23,14.79-12.46,18.3-1.22.68-2.33,1.23-3.33,1.68a14.45,14.45,0,0,0,8.44-3.15c5-3.61,10.36-9,14.13-20.89,3.11-9.86.87-19.08-1.25-25.35l-6.31,3.71S300.13,157.82,298.18,167.94Z" style="fill:#fff;opacity:0.5"></path></g><path d="M259.1,142.37s2.52,13.82,2.52,19.78,6.43,18.22,12.72,22.78,11.46,3.45,16.49-.16,10.36-9,14.13-20.89S304.65,141,302.45,135s-18.53-9.9-30-7.07S259.26,137.66,259.1,142.37Z" style="fill:none;stroke:#263238;stroke-linecap:round;stroke-linejoin:round"></path><path d="M275.44,165.92s.94,2.36,4.39,2.36" style="fill:none;stroke:#263238;stroke-linecap:round;stroke-linejoin:round"></path><path d="M276.06,173s4.09,3.46,10.68-1.41" style="fill:none;stroke:#263238;stroke-linecap:round;stroke-linejoin:round"></path><path d="M284.7,156s7.38,2.2,11.31-2.36" style="fill:none;stroke:#263238;stroke-linecap:round;stroke-linejoin:round"></path><path d="M285.33,156.5a5.62,5.62,0,0,0,4.24,1.73,5.2,5.2,0,0,0,4.24-2.67A22.05,22.05,0,0,1,285.33,156.5Z" style="fill:#263238"></path><path d="M263.13,153.64s6.33,4.38,11.48,1.27" style="fill:none;stroke:#263238;stroke-linecap:round;stroke-linejoin:round"></path><path d="M263.58,154.29a5.58,5.58,0,0,0,3.49,3,5.2,5.2,0,0,0,4.86-1.22A22,22,0,0,1,263.58,154.29Z" style="fill:#263238"></path><path d="M254.28,127.08,251,143.25a33.2,33.2,0,0,0,8.32,2.36c4.08.47,6.6.78,6.6.78l1.72-4.39.95,4.55a25,25,0,0,0,8.63.63,44.42,44.42,0,0,1,6.6-.63l1.88-3.77.63,3.77h3.3a23.46,23.46,0,0,0,8-1.57S303,164,303,192.25s-3.46,48.21-3.46,48.21,5.81-3.3,7.07-5,5.34-15.24,5.34-15.24l.94,8.8a45.6,45.6,0,0,0,7.7-9.43c3.3-5.49,6.44-20.1,6.44-20.1l.94,3.77,8.95,3.93s-8.28-55.39-13.62-73.45-8-25-18.22-32.5-29.09-4.45-38.83,2.61S254.28,127.08,254.28,127.08Z" style="fill:#263238"></path><g style="clip-path:url(#clip-path-5--inject-53)"><path d="M325.73,168a5,5,0,0,1,2.87,3c-.14-.85-.29-1.7-.44-2.55a5.43,5.43,0,0,0-2.08-1.39,2.22,2.22,0,0,0-1.8.1c-2.77,1.31-5.09,8.12-6.78,13.09a38.67,38.67,0,0,1-1.62,4.35c-.2.37-.4.43-.54.44-1.16.13-3.51-2.66-5.22-4.69-.81-1-1.57-1.86-2.23-2.52a2,2,0,0,0-1.71-.59c-2.07.24-4.67,3.32-6.3,5.57,0,.56,0,1.12,0,1.69,1.59-2.34,4.49-6,6.38-6.27a1,1,0,0,1,.88.3c.63.64,1.38,1.52,2.17,2.47,2.1,2.48,4.26,5,5.93,5h.16a1.69,1.69,0,0,0,1.32-1,38.2,38.2,0,0,0,1.69-4.5c1.54-4.53,3.87-11.37,6.26-12.51A1.26,1.26,0,0,1,325.73,168Z" style="fill:#474747"></path><path d="M300.25,128h0a1.87,1.87,0,0,0,1.54-1c1.16-1.8,1.21-4.47,1.26-7s.1-5.28,1.59-5.5c1.7-.25,3.85,3.43,5.43,6.13s2.54,4.25,3.55,4.25c2.19,0,3.35-3.39,3.4-3.53a.52.52,0,0,0-.32-.64.51.51,0,0,0-.63.32c-.27.79-1.23,2.85-2.45,2.85-.5,0-1.82-2.27-2.68-3.76-1.92-3.27-4.1-7-6.45-6.61s-2.38,3.32-2.44,6.47c0,2.33-.1,5-1.1,6.53-.29.45-.55.51-.72.51h0c-1.42,0-3.83-3.42-5.77-6.16a26.75,26.75,0,0,0-3.67-4.58,1.46,1.46,0,0,0-1.28-.35c-1.32.29-2.33,2.4-3.73,5.33-1.68,3.5-3.77,7.86-6.64,8.77-3.54,1.13-6.91-3.8-9.62-7.75-1.51-2.2-2.82-4.11-4.05-5a2.35,2.35,0,0,0-2.12-.4c-2.13.68-3.54,4.55-4.67,7.66-.33.91-.62,1.7-.87,2.26a.61.61,0,0,1-.48.39c-1.23.23-4-1.71-6.1-3.53l-.23,1.12c1.92,1.61,4.82,3.71,6.52,3.39a1.6,1.6,0,0,0,1.2-1c.27-.59.56-1.4.9-2.33.94-2.59,2.37-6.51,4-7a1.37,1.37,0,0,1,1.24.26c1.08.75,2.4,2.67,3.79,4.7,2.59,3.77,5.73,8.36,9.39,8.36a4.35,4.35,0,0,0,1.36-.22c3.28-1,5.48-5.62,7.24-9.29,1.08-2.26,2.2-4.6,3.05-4.79a.48.48,0,0,1,.43.15,27.1,27.1,0,0,1,3.48,4.38C296.05,124.82,298.31,128,300.25,128Z" style="fill:#474747"></path></g><ellipse cx="227.15" cy="422.54" rx="25.61" ry="11.79" style="fill:#68C8A8"></ellipse><ellipse cx="227.15" cy="422.54" rx="25.61" ry="11.79" style="fill:#fff;opacity:0.5"></ellipse><path d="M199.24,376.74l11.44,43c0,2.92,7.72,5.29,17.24,5.29s17.24-2.37,17.24-5.29l11.44-43Z" style="fill:#fff"></path><g style="clip-path:url(#clip-path-6--inject-53)"><path d="M227.92,425a44.77,44.77,0,0,0,11.49-1.35l11.39-46.91H202.62L214.37,423A39.82,39.82,0,0,0,227.92,425Z" style="opacity:0.31;mix-blend-mode:multiply"></path></g><path d="M199.24,376.74l11.44,43c0,2.92,7.72,5.29,17.24,5.29s17.24-2.37,17.24-5.29l11.44-43Z" style="fill:none;stroke:#263238;stroke-linecap:round;stroke-linejoin:round"></path><path d="M256.6,376.74c0,2.92-12.84,5.28-28.68,5.28s-28.68-2.36-28.68-5.28,12.84-5.29,28.68-5.29S256.6,373.82,256.6,376.74Z" style="fill:#fff;stroke:#263238;stroke-linecap:round;stroke-linejoin:round"></path><ellipse cx="227.92" cy="376.74" rx="24.92" ry="3.9" style="fill:#263238;stroke:#263238;stroke-linecap:round;stroke-linejoin:round"></ellipse><path d="M225.06,361.4s-.52-2.6,1.39-7.28a41.36,41.36,0,0,1,4-7.62,51.58,51.58,0,0,1,4.34,9.18,27.86,27.86,0,0,1,1.38,7.63s-2.25,5-4.33,6.76-3.64.86-5-1.22S225.06,361.4,225.06,361.4Z" style="fill:#68C8A8;stroke:#263238;stroke-linecap:round;stroke-linejoin:round"></path><path d="M219,366.77a22.36,22.36,0,0,1-.52-5.72c0-4,1.73-10.22,1.73-10.22a31.35,31.35,0,0,1,4.85,6.93c1.73,3.64,4.85,10.75,4.85,10.75a36.51,36.51,0,0,1,3.3-7.28c2.25-3.81,7.79-8.84,7.79-8.84V360a21.36,21.36,0,0,1-1.73,8.31s-.52,1.74-7.1,3.12S220.21,371.28,219,366.77Z" style="fill:#68C8A8;stroke:#263238;stroke-linecap:round;stroke-linejoin:round"></path><path d="M214.14,373.19a7.85,7.85,0,0,1-2.42-6.07,34.21,34.21,0,0,1,1-8,16.16,16.16,0,0,1,3.29,2.42c2.43,2.08,7.8,7.46,7.8,7.8a20,20,0,0,1,2.6-3.81c2.08-2.25,8.32-7.62,8.32-7.62a60.39,60.39,0,0,1,.86,6.93c0,2.08.35,5,.35,5a37.12,37.12,0,0,1,5.37-6.41,49.15,49.15,0,0,1,6.24-4.5s.52,1.21.35,4.67-2.6,9.88-3.3,10.92-3.12,3.12-7.79,4.16-12.66,1.73-16.81.52S214.14,373.19,214.14,373.19Z" style="fill:#68C8A8;stroke:#263238;stroke-linecap:round;stroke-linejoin:round"></path><path d="M211.72,379.77a42.34,42.34,0,0,1-5.2-5.54A32.75,32.75,0,0,1,201,364a14.55,14.55,0,0,1,5.55,2.25c3.46,2.08,13.86,10.23,13.86,10.23a10.16,10.16,0,0,1-.69-7.28,14,14,0,0,1,2.77-5.37s3.64,3.29,4.85,5.89,2.6,6.41,2.6,6.41a28.93,28.93,0,0,1,4.68-8,32.84,32.84,0,0,1,6.76-5.55s1.56,3.82.52,7.11-2.08,5.89-2.08,5.89,3.81-6.58,6.93-8.14,9.88-3,9.88-3-2.77,6.24-5,9a76.38,76.38,0,0,1-5.55,5.89S228.7,382.89,211.72,379.77Z" style="fill:#68C8A8;stroke:#263238;stroke-linecap:round;stroke-linejoin:round"></path><path d="M321.32,221.57s-4.4,20.42-4.71,21.83-8.17,16-11.15,24a84,84,0,0,0-4.4,15.07c-.16,1.42-10.84,18.85-16.49,28s-13,21.36-14.76,22.77-9.58,4.08-12.1,5.34-5.18,2.67-6.91,4.87-6.12,8.16-8.63,10.05-5.5,2.51-4.56,3.92,3.3,1.73,5.81.63a54.88,54.88,0,0,0,8.64-5.49,23.19,23.19,0,0,1,2.67-1.89s-7.27,22.6-7.9,25.74a2.39,2.39,0,0,0,3.61,2.67c.94-.78,8.85-20.09,10.1-22.44s2-4.4,2.51-3.61,0,6.43-1.72,10.68-6.44,15.39-5.66,16.64,2.52-.16,4.24-2.51,4.09-6.13,5.34-7.85,2.83-3.3,7.54-6.44,7.7-9.11,9.89-16.49,1.89-11,3.3-14.14,25.91-23.71,30.94-31.72,7.69-17.9,8.32-19.63,10.21-17.12,14.29-29.68,3.93-25.13,4.72-31.25-1.58-13-7.39-15.08" style="fill:#68C8A8"></path><g style="clip-path:url(#clip-path-7--inject-53)"><path d="M325.24,281.56c.63-1.73,10.21-17.12,14.29-29.68s3.93-25.13,4.72-31.25c.72-5.68-1.26-12-6.18-14.55,2.27,5.72,5.68,17.45,1.38,28.92-6,16-18,34-21.5,45.5s-11.5,23-22,34.5-15,20-15,31a36.48,36.48,0,0,1-1.26,9,50.72,50.72,0,0,0,3-7.91c2.2-7.38,1.89-11,3.3-14.14s25.91-23.71,30.94-31.72S324.61,283.29,325.24,281.56Z" style="opacity:0.31;mix-blend-mode:multiply"></path></g><path d="M321.32,221.57s-4.4,20.42-4.71,21.83-8.17,16-11.15,24a84,84,0,0,0-4.4,15.07c-.16,1.42-10.84,18.85-16.49,28s-13,21.36-14.76,22.77-9.58,4.08-12.1,5.34-5.18,2.67-6.91,4.87-6.12,8.16-8.63,10.05-5.5,2.51-4.56,3.92,3.3,1.73,5.81.63a54.88,54.88,0,0,0,8.64-5.49,23.19,23.19,0,0,1,2.67-1.89s-7.27,22.6-7.9,25.74a2.39,2.39,0,0,0,3.61,2.67c.94-.78,8.85-20.09,10.1-22.44s2-4.4,2.51-3.61,0,6.43-1.72,10.68-6.44,15.39-5.66,16.64,2.52-.16,4.24-2.51,4.09-6.13,5.34-7.85,2.83-3.3,7.54-6.44,7.7-9.11,9.89-16.49,1.89-11,3.3-14.14,25.91-23.71,30.94-31.72,7.69-17.9,8.32-19.63,10.21-17.12,14.29-29.68,3.93-25.13,4.72-31.25-1.58-13-7.39-15.08" style="fill:none;stroke:#263238;stroke-linecap:round;stroke-linejoin:round"></path><path d="M277.45,322c-3.52,5.64-6.6,10.42-7.64,11.27-1.73,1.41-9.58,4.08-12.1,5.34s-5.18,2.67-6.91,4.87-6.12,8.16-8.63,10.05-5.5,2.51-4.56,3.92,3.3,1.73,5.81.63a54.88,54.88,0,0,0,8.64-5.49,23.19,23.19,0,0,1,2.67-1.89s-7.27,22.6-7.9,25.74a2.39,2.39,0,0,0,3.61,2.67c.94-.78,8.85-20.09,10.1-22.44s2-4.4,2.51-3.61,0,6.43-1.72,10.68-6.44,15.39-5.66,16.64,2.52-.16,4.24-2.51,4.09-6.13,5.34-7.85,2.83-3.3,7.54-6.44,7.7-9.11,9.89-16.49,1.89-11,3.3-14.14a20,20,0,0,1,3.11-3.56C284.25,322.93,279.83,321.92,277.45,322Z" style="fill:#fff;stroke:#263238;stroke-linecap:round;stroke-linejoin:round"></path><line x1="266.19" y1="368.72" x2="270.59" y2="357.26" style="fill:none;stroke:#263238;stroke-linecap:round;stroke-linejoin:round"></line><line x1="271.38" y1="364.32" x2="274.2" y2="358.83" style="fill:none;stroke:#263238;stroke-linecap:round;stroke-linejoin:round"></line><path d="M274.36,216.39l-32.71-3.79a4.94,4.94,0,0,0-5.22,3.21l-2.11,5.76s.64,6.63,6.52,6.27c4.9-.3,5.15-3.74,5.09-4.87l25,3Z" style="fill:#fff;stroke:#263238;stroke-linecap:round;stroke-linejoin:round"></path><polygon points="270.91 225.97 271.06 246.07 274.52 238.69 274.36 216.39 270.91 225.97" style="fill:#263238;stroke:#263238;stroke-linecap:round;stroke-linejoin:round"></polygon><polygon points="271.06 246.07 234.94 240.73 234.31 221.57 270.91 225.97 271.06 246.07" style="fill:#263238;stroke:#263238;stroke-linecap:round;stroke-linejoin:round"></polygon><path d="M245.93,223l.33,19.51s-.72,1.72-4,2.45-5.43.63-7-1.45a5.44,5.44,0,0,1-1-3V221.57Z" style="fill:#263238;stroke:#263238;stroke-linecap:round;stroke-linejoin:round"></path><path d="M261.2,241.48a10,10,0,0,0,.75-3.81,9.32,9.32,0,0,0-18.5-1.87L242,241.54l2.4.73a9.32,9.32,0,0,0,8.22,5.06,9,9,0,0,0,4.48-1.19l2.8.86Z" style="fill:#263238;stroke:#fff;stroke-linecap:round;stroke-linejoin:round"></path><ellipse cx="250.73" cy="245.05" rx="9.34" ry="9.66" style="fill:#263238;stroke:#fff;stroke-linecap:round;stroke-linejoin:round"></ellipse><ellipse cx="250.73" cy="245.05" rx="6.72" ry="6.95" style="fill:#263238;stroke:#fff;stroke-linecap:round;stroke-linejoin:round"></ellipse><polygon points="250.31 211.68 247.8 221.09 262.45 222.98 264.89 213.19 250.31 211.68" style="fill:#263238;stroke:#fff;stroke-linecap:round;stroke-linejoin:round"></polygon><polygon points="247.8 221.09 247.8 225.7 260.36 227.37 262.45 222.98 247.8 221.09" style="fill:#263238;stroke:#fff;stroke-linecap:round;stroke-linejoin:round"></polygon><path d="M271.23,219.64c0,1.44-1.59,2.6-3.55,2.6s-3.55-1.16-3.55-2.6,1.59-2.6,3.55-2.6S271.23,218.21,271.23,219.64Z" style="fill:#fff;stroke:#263238;stroke-linecap:round;stroke-linejoin:round"></path><path d="M244,221.28c0,1.44-1.63,2.6-3.64,2.6s-3.64-1.16-3.64-2.6,1.63-2.6,3.64-2.6S244,219.85,244,221.28Z" style="fill:#fff;stroke:#263238;stroke-linecap:round;stroke-linejoin:round"></path><path d="M240.12,213.83s-5.25,1.08-8.68,1.35-4.34,1.45-4.34,2.81-1.27,11.84-1.27,11.84l4.7-1.54,1.09-8.86a20.21,20.21,0,0,0,6-.45c2.35-.72,3.79-1.63,3.79-3S241.47,213.83,240.12,213.83Z" style="fill:#fff;stroke:#263238;stroke-linecap:round;stroke-linejoin:round"></path><path d="M221.58,240.32s3.89,10.93,4.8,13.47a12.18,12.18,0,0,1,.09,8.4c-1.09,3.17-5.7,20.61-8.5,28.12s4.16,16.63,7.23,18.26,7.23-1.09,9.94-7,2.08-16.09,2-23.69-1.71-18.62-1.53-20.52,2.53-4.34,1.71-9.49-1.26-6.87-1.26-8.86.36-6.51-3.26-7.68S221.4,233.35,221.58,240.32Z" style="fill:#fff"></path><g style="clip-path:url(#clip-path-8--inject-53)"><path d="M237.31,247.91c-.81-5.15-1.26-6.87-1.26-8.86s.36-6.51-3.26-7.68c-1.87-.61-4.84-.05-7.26,1.59l.29,7.25,2.82,6.34s2.69,1.47,3.15,7.9-.23,19.75-.23,19.75l5.68,14.54c.07-3.72-.07-7.52-.11-10.82-.09-7.59-1.71-18.62-1.53-20.52S238.13,253.06,237.31,247.91Z" style="fill:#68C8A8"></path><path d="M237.31,247.91c-.81-5.15-1.26-6.87-1.26-8.86s.36-6.51-3.26-7.68c-1.87-.61-4.84-.05-7.26,1.59l.29,7.25,2.82,6.34s2.69,1.47,3.15,7.9-.23,19.75-.23,19.75l5.68,14.54c.07-3.72-.07-7.52-.11-10.82-.09-7.59-1.71-18.62-1.53-20.52S238.13,253.06,237.31,247.91Z" style="fill:#fff;opacity:0.5"></path></g><path d="M221.58,240.32s3.89,10.93,4.8,13.47a12.18,12.18,0,0,1,.09,8.4c-1.09,3.17-5.7,20.61-8.5,28.12s4.16,16.63,7.23,18.26,7.23-1.09,9.94-7,2.08-16.09,2-23.69-1.71-18.62-1.53-20.52,2.53-4.34,1.71-9.49-1.26-6.87-1.26-8.86.36-6.51-3.26-7.68S221.4,233.35,221.58,240.32Z" style="fill:none;stroke:#263238;stroke-linecap:round;stroke-linejoin:round"></path><path d="M235.14,301.61c2.72-5.88,2.08-16.09,2-23.69,0-2.2-.18-4.68-.38-7.15-6.47,4.6-10.66,2.43-12.85.22-1.85,6.48-4.22,14.74-5.93,19.32-2.8,7.5,4.16,16.63,7.23,18.26S232.43,307.48,235.14,301.61Z" style="fill:#68C8A8"></path><g style="clip-path:url(#clip-path-9--inject-53)"><path d="M235.14,301.61c2.72-5.88,2.08-16.09,2-23.69,0-2.2-.18-4.68-.38-7.15a15.26,15.26,0,0,1-4.68,2.35C230.33,284.34,228,298.9,227,302.5c-.53,1.84-2.11,3.15-4.06,4.14a9.62,9.62,0,0,0,2.31,1.93C228.27,310.2,232.43,307.48,235.14,301.61Z" style="opacity:0.31;mix-blend-mode:multiply"></path></g><path d="M235.14,301.61c2.72-5.88,2.08-16.09,2-23.69,0-2.2-.18-4.68-.38-7.15-6.47,4.6-10.66,2.43-12.85.22-1.85,6.48-4.22,14.74-5.93,19.32-2.8,7.5,4.16,16.63,7.23,18.26S232.43,307.48,235.14,301.61Z" style="fill:none;stroke:#263238;stroke-linecap:round;stroke-linejoin:round"></path><path d="M227.37,248.45l1.27-1.9s6.78,1.72,8.22,1.63,1.72-.54,2.35-1.54-2.8-1.62-4.88-2.17-6.42-2.26-6.42-2.26a57.45,57.45,0,0,1,4.88-3.7c.37,0,3.17,2.35,5.43,2.44a2.26,2.26,0,0,0,1.35-3.26c-.28-.62,1.38.83,1.63-1.17.18-1.45-2.31-4.18-2.62-4.52a12.26,12.26,0,0,1-1.63-2.8c-.54-1.09-2.53-3.8-4.16-3.53s-13.19,5.42-13.19,5.42a9.62,9.62,0,0,0,.27,4.43L223,245" style="fill:#fff;stroke:#263238;stroke-linecap:round;stroke-linejoin:round"></path><path d="M225,236.16s7-3.17,8-3.26a1.84,1.84,0,0,1,1.72,1c.27.36,4.79,3.79,4.79,3.79" style="fill:#fff;stroke:#263238;stroke-linecap:round;stroke-linejoin:round"></path></g></svg>
