<svg xmlns="http://www.w3.org/2000/svg" viewBox="0 0 500 500"><g id="background-complete--inject-53"><path d="M201.65,301.69a1.06,1.06,0,0,1-.11-.25c-.06-.2-.15-.44-.25-.75l-.39-1.21a12.26,12.26,0,0,0-.59-1.63,38.55,38.55,0,0,0-5.44-9.57,36.35,36.35,0,0,0-2.35-2.8c-.86-1-1.83-1.84-2.82-2.79s-2.09-1.84-3.32-2.65c-.59-.42-1.18-.86-1.81-1.27l-1.95-1.18a39.92,39.92,0,0,0-8.86-3.77,35.2,35.2,0,0,0-20.43.07,39.67,39.67,0,0,0-8.84,3.83l-1.94,1.19c-.63.41-1.22.86-1.81,1.28-1.22.82-2.24,1.81-3.3,2.67s-1.95,1.86-2.8,2.81-1.68,1.85-2.33,2.82a38.6,38.6,0,0,0-5.38,9.61,13.06,13.06,0,0,0-.58,1.63c-.15.47-.27.87-.38,1.21s-.18.55-.25.75a1.1,1.1,0,0,1-.1.25,1,1,0,0,1,0-.26l.2-.76c.09-.35.2-.76.33-1.24a12.55,12.55,0,0,1,.54-1.65,37.31,37.31,0,0,1,5.27-9.77c.66-1,1.52-1.87,2.33-2.86s1.83-1.88,2.81-2.85,2.09-1.89,3.32-2.72c.59-.43,1.19-.89,1.82-1.31l2-1.22a39.88,39.88,0,0,1,8.93-3.9,35.51,35.51,0,0,1,20.72-.07,40.2,40.2,0,0,1,9,3.84l2,1.2c.63.42,1.22.88,1.83,1.3,1.22.82,2.25,1.83,3.33,2.7s2,1.88,2.82,2.84a39.15,39.15,0,0,1,7.69,12.57,12.72,12.72,0,0,1,.55,1.65c.13.48.25.89.34,1.23s.15.56.21.76A1,1,0,0,1,201.65,301.69Z" style="fill:#e0e0e0"></path><path d="M214.1,461.31c-.35.05-7.57-58.73-16.13-131.26s-15.21-131.4-14.86-131.44,7.58,58.73,16.14,131.29S214.46,461.27,214.1,461.31Z" style="fill:#e0e0e0"></path><path d="M154.71,300.6a6.3,6.3,0,0,0,.9,1.15l2.76,3.11,2,2.23,2.22,2.8,2.55,3.2c.9,1.14,1.74,2.43,2.68,3.74a177.06,177.06,0,0,1,11.86,19.24,264.72,264.72,0,0,1,11.52,25.19,370.42,370.42,0,0,1,14.87,48.12c1.53,6.27,2.65,11.38,3.4,14.91.36,1.65.66,3,.9,4.06a6.32,6.32,0,0,0,.4,1.4,6.56,6.56,0,0,0-.15-1.45c-.17-1.07-.39-2.43-.66-4.11-.6-3.56-1.59-8.7-3-15a333.5,333.5,0,0,0-14.56-48.39,252.24,252.24,0,0,0-11.67-25.28,167.72,167.72,0,0,0-12.18-19.22c-1-1.29-1.84-2.57-2.76-3.7s-1.82-2.16-2.65-3.16l-2.31-2.74c-.75-.81-1.47-1.52-2.09-2.17l-2.94-2.95A6.41,6.41,0,0,0,154.71,300.6Z" style="fill:#e0e0e0"></path><path d="M225.54,245.5a10.27,10.27,0,0,1-.51,2q-.63,2.09-1.7,5.56c-.39,1.22-.8,2.56-1.26,4s-.84,3.1-1.3,4.83c-1,3.45-2.05,7.38-3,11.8q-.77,3.3-1.6,6.89c-.47,2.42-.95,4.94-1.46,7.54-1.1,5.19-1.83,10.81-2.82,16.69-1.62,11.82-3,24.87-3.76,38.62s-.81,26.88-.62,38.81.8,22.67,1.56,31.66c.3,4.51.71,8.57,1.06,12.14s.63,6.65.93,9.15.47,4.35.62,5.79a12.29,12.29,0,0,1,.13,2,13.26,13.26,0,0,1-.38-2c-.22-1.43-.5-3.35-.86-5.76s-.77-5.56-1.16-9.13-.88-7.63-1.24-12.14c-.88-9-1.45-19.76-1.85-31.72-.25-11.95-.19-25.11.53-38.9s2.18-26.87,3.88-38.72c1-5.89,1.79-11.53,2.94-16.72l1.53-7.55c.59-2.39,1.15-4.7,1.69-6.9,1-4.41,2.17-8.33,3.19-11.78q.75-2.58,1.41-4.81c.49-1.44.95-2.77,1.36-4,.81-2.3,1.46-4.12,1.94-5.49A12.58,12.58,0,0,1,225.54,245.5Z" style="fill:#e0e0e0"></path><path d="M185.65,227c-1.74-8.25-10.88-13.57-19.26-12.69s-15.61,6.8-20,14-6.24,15.62-7.63,23.93c-3.37,20.29-4.08,41.27.67,61.28s15.27,39,31.48,51.69c2.63,2.06,6,4,9.13,3a10.44,10.44,0,0,0,4.26-3.36,136.37,136.37,0,0,0,32.11-108.1c-1.11-7.69-3.05-15.6-8.06-21.54s-15.76-11.61-22.73-8.19" style="fill:#ebebeb"></path><path d="M115.46,167.42l-9.33,22.7c-.22.53-.52,1.13-1.08,1.25s-1.14-.41-1.54-.9L66.84,146.23l6.71-4.9Z" style="fill:#e0e0e0"></path><path d="M183.11,198.61,69.57,148.11c-1.16-.51-2.42-1.13-2.89-2.31-.6-1.52.4-3.18,1.4-4.48,12.89-16.77,33.12-28,54.25-28.86s42.67,8.88,55.05,26,15.5,41.36,5.73,60.12" style="fill:#ebebeb"></path><path d="M82.59,126.32A6.34,6.34,0,0,1,84,126c.91-.15,2.25-.47,4-.66a80.88,80.88,0,0,1,14.88-.52,86.83,86.83,0,0,1,76,54.34,80.63,80.63,0,0,1,4.31,14.26,30.67,30.67,0,0,1,.52,3.08,5.44,5.44,0,0,1-.55,2.42,18.57,18.57,0,0,0-.46-5.39,90.87,90.87,0,0,0-4.66-14,89.63,89.63,0,0,0-29.91-37.65,89.67,89.67,0,0,0-45.29-16.14,91.43,91.43,0,0,0-14.78.12C84.53,126.15,82.61,126.44,82.59,126.32Z" style="fill:#e0e0e0"></path><path d="M163.74,157c.08.15-1.86,1.33-5.1,3.06s-7.77,4-12.87,6.27-9.8,4.18-13.24,5.45-5.61,1.94-5.67,1.78,2-1.13,5.33-2.62l13.06-5.78,13-5.92C161.57,157.7,163.65,156.8,163.74,157Z" style="fill:#e0e0e0"></path><path d="M141.82,113.92c.34-.07,1.7,5.15,2.62,11.72s1.06,12,.71,12-1.05-5.28-2-11.8S141.46,114,141.82,113.92Z" style="fill:#e0e0e0"></path><path d="M68.5,147c-.06-.16,2.76-1.56,7.42-3.61s11.16-4.7,18.45-7.37,14-4.85,18.86-6.29,7.94-2.2,8-2-2.91,1.22-7.71,2.89-11.42,4-18.69,6.63-13.82,5.19-18.56,7S68.58,147.2,68.5,147Z" style="fill:#e0e0e0"></path><path d="M141,205.92c-9.18-7-18.91-8.42-30.45-8s-22.79,3.9-33.39,8.49C59,214.24,42,225.83,31.19,242.28s-14.67,38.27-6.67,56.27c.8,1.79,1.84,3.67,3.64,4.44s4.08.2,6.05-.44c20.54-6.62,41.24-13.3,60.15-23.72s36.14-24.93,46.33-44c2.45-4.57,4.5-9.47,4.92-14.63s-1-10.66-4.66-14.32" style="fill:#ebebeb"></path><path d="M141.14,203.76a8.23,8.23,0,0,1-1.48.59l-4.31,1.46-3.11,1c-1.13.4-2.34.91-3.65,1.41-2.6,1-5.62,2.08-8.8,3.61l-5,2.27c-1.75.8-3.49,1.78-5.34,2.72-3.73,1.81-7.5,4.13-11.52,6.48a199.88,199.88,0,0,0-24.36,17.94A199.77,199.77,0,0,0,52.47,263c-2.87,3.66-5.68,7.09-8,10.54-1.17,1.7-2.38,3.3-3.41,4.93s-2,3.19-2.93,4.69c-1.94,2.94-3.38,5.79-4.76,8.23-.67,1.23-1.33,2.36-1.88,3.42l-1.44,2.95-2,4.07a7.48,7.48,0,0,1-.79,1.39,7.36,7.36,0,0,1,.55-1.49l1.81-4.18c.41-.92.86-1.92,1.34-3s1.15-2.23,1.8-3.48c1.33-2.48,2.71-5.38,4.62-8.37q1.36-2.28,2.87-4.76c1-1.65,2.21-3.27,3.37-5,2.28-3.5,5.07-7,7.94-10.68a192,192,0,0,1,21.12-22,191,191,0,0,1,24.6-18c4.06-2.34,7.88-4.64,11.65-6.43,1.87-.92,3.63-1.89,5.4-2.67l5.1-2.21c3.22-1.48,6.28-2.47,8.92-3.45,1.32-.47,2.54-.94,3.69-1.31l3.16-.92,4.39-1.24A6.38,6.38,0,0,1,141.14,203.76Z" style="fill:#e0e0e0"></path><path d="M69.09,242.43c.1.35-9.94,3.54-22.41,7.14S24,255.81,23.9,255.47s9.94-3.53,22.42-7.13S69,242.1,69.09,242.43Z" style="fill:#e0e0e0"></path><path d="M68,291.84c-.17,0-.36-2.66-.46-7s-.1-10.27.1-16.85.58-12.54,1-16.84.73-6.94.9-6.93.15,2.68,0,7c-.16,4.72-.36,10.47-.58,16.82s-.34,12.09-.48,16.82C68.3,289.17,68.17,291.84,68,291.84Z" style="fill:#e0e0e0"></path><path d="M110.39,270.43c-.35,0-1.43-12.1-2.41-27.07s-1.49-27.12-1.14-27.15,1.44,12.1,2.42,27.07S110.75,270.41,110.39,270.43Z" style="fill:#e0e0e0"></path><path d="M57.91,214.86c0-.18,2.75-.24,7.18-.19s10.53.2,17.27.45,12.85.54,17.27.82,7.14.54,7.14.71-2.74.24-7.17.19-10.53-.19-17.29-.44-12.85-.55-17.27-.82S57.9,215,57.91,214.86Z" style="fill:#e0e0e0"></path><path d="M175.82,367.47a6.31,6.31,0,0,1-.32-1.4c-.17-1.07-.39-2.41-.65-4.07-.57-3.53-1.2-8.68-1.8-15.05S172,333,171.8,324.5s0-17.79.62-27.55,1.73-19,3-27.41,2.73-15.89,4.18-22.14,2.71-11.29,3.74-14.73l1.18-4a6.16,6.16,0,0,1,.5-1.35,6.74,6.74,0,0,1-.25,1.42c-.25,1.05-.56,2.38-1,4-.87,3.48-2,8.53-3.34,14.79s-2.65,13.76-3.89,22.12-2.2,17.6-2.86,27.33-.79,19-.72,27.44.48,16,1,22.4,1,11.52,1.39,15.07l.42,4.09A6.53,6.53,0,0,1,175.82,367.47Z" style="fill:#e0e0e0"></path><path d="M173.41,297.22c.14.11-1.27,2.08-3.7,5.14s-5.92,7.19-9.92,11.61-7.79,8.29-10.59,11-4.64,4.32-4.76,4.19,1.47-1.94,4.11-4.82l10.29-11.24L169,301.77C171.62,298.87,173.27,297.1,173.41,297.22Z" style="fill:#e0e0e0"></path><path d="M210.19,320.45c-.14.11-2.11-2.11-5.24-5.74l-12.27-14.12-12.47-13.95c-3.21-3.56-5.17-5.79-5-5.91s2.32,1.88,5.69,5.29,7.94,8.23,12.78,13.72,9.05,10.62,12,14.4S210.32,320.34,210.19,320.45Z" style="fill:#e0e0e0"></path><path d="M182.74,237.22c.23.28-10.08,9.09-23,19.69s-23.62,19-23.84,18.69,10.08-9.09,23-19.69S182.52,237,182.74,237.22Z" style="fill:#e0e0e0"></path><path d="M218.18,267.62c-.22.28-8.59-5.85-18.71-13.68s-18.14-14.41-17.92-14.69,8.59,5.84,18.71,13.68S218.4,267.34,218.18,267.62Z" style="fill:#e0e0e0"></path><path d="M223.35,253.38l9.5-1.9a47.81,47.81,0,0,0,18.7-8.17,76.82,76.82,0,0,1,8.51-5.57c11.32-6.13,24.65-6.8,37.35-8.91a157.81,157.81,0,0,0,58.47-22.35,5.93,5.93,0,0,0,2.35-2.68c1.56-3.82-2.47-6.59-5.85-8.17-17.31-8.1-34.93-16.3-53.83-19.13s-39.62.4-54,13c-16.91,14.75-20.61,41.48-21.17,63.92" style="fill:#ebebeb"></path><path d="M358.31,202.6a9.72,9.72,0,0,1-1.71-.57l-4.83-1.86c-4.18-1.62-10.21-4-17.78-6.65a159.91,159.91,0,0,0-27.16-7,86.57,86.57,0,0,0-34,1.15c-11.77,3-22.23,8.87-29.21,16.74s-10.86,16.79-13.41,24.31a187.66,187.66,0,0,0-4.95,18.3c-.48,2.09-.86,3.76-1.15,5a9.54,9.54,0,0,1-.48,1.74,8.48,8.48,0,0,1,.22-1.79c.24-1.29.54-3,.92-5.09a160.89,160.89,0,0,1,4.57-18.48c2.48-7.62,6.25-16.74,13.4-24.82s17.81-14.19,29.78-17.19A86.2,86.2,0,0,1,307,185.33a151.88,151.88,0,0,1,27.28,7.34c7.56,2.73,13.54,5.27,17.67,7l4.73,2.08A9.31,9.31,0,0,1,358.31,202.6Z" style="fill:#e0e0e0"></path><path d="M336.69,217.63c-.16.32-13.65-6.36-30.12-14.9S276.88,187,277,186.68s13.65,6.36,30.12,14.91S336.85,217.32,336.69,217.63Z" style="fill:#e0e0e0"></path><path d="M318.93,181.19c.09.27-3.86,1.68-8.95,2.69s-9.3,1.24-9.33,1,4.08-1,9.1-2S318.83,180.9,318.93,181.19Z" style="fill:#e0e0e0"></path><path d="M263.16,180.35c.32.11-1.19,3.2-3.38,6.91s-4.21,6.63-4.53,6.53,1.19-3.2,3.38-6.91S262.84,180.25,263.16,180.35Z" style="fill:#e0e0e0"></path><path d="M280.46,231.6c-.08.15-2.54-.8-6.42-2.58s-9.15-4.45-14.83-7.64-10.7-6.27-14.32-8.52-5.81-3.71-5.72-3.87,2.44,1,6.18,3.09l14.49,8.18c5.66,3.19,10.84,6,14.6,7.94S280.53,231.43,280.46,231.6Z" style="fill:#e0e0e0"></path><path d="M126.18,298.61c.25-7.34-8.36-14.05-15.7-13.87s-13.91,4.44-19.67,9C78.07,303.81,67,316.24,59.91,330.89s-9.82,31.6-6.13,47.42c12.92-6,28-5.56,41.39-10.34a55.49,55.49,0,0,0,36.5-58.73c-.53-4.53-1-9.8-5.49-10.63" style="fill:#ebebeb"></path><path d="M53.78,378.31a4.92,4.92,0,0,1,.24-1.09,18.74,18.74,0,0,1,1.14-3c1.16-2.55,3.77-5.77,7.58-8.92,1.89-1.59,3.94-3.36,6.24-5.15l7.38-5.6A82.31,82.31,0,0,0,84.11,348a71.13,71.13,0,0,0,7.12-8.25c4.49-6,8.14-12.19,11.73-17.64a100.53,100.53,0,0,1,10.54-13.82,49.1,49.1,0,0,1,8.92-7.61,30.94,30.94,0,0,1,2.75-1.6,5,5,0,0,1,1-.46c0,.08-1.3.8-3.55,2.38a53.39,53.39,0,0,0-8.61,7.77,105.28,105.28,0,0,0-10.29,13.83c-3.54,5.47-7.18,11.67-11.71,17.74a69.34,69.34,0,0,1-7.24,8.35,79.19,79.19,0,0,1-7.87,6.62l-7.43,5.52c-2.3,1.75-4.38,3.48-6.29,5-3.84,3.07-6.44,6.11-7.68,8.56S53.89,378.35,53.78,378.31Z" style="fill:#e0e0e0"></path><path d="M56.91,340a21.21,21.21,0,0,1,4.8-.42c3-.11,7.09-.12,11.62.11s8.63.65,11.58,1.05a21.71,21.71,0,0,1,4.74.91c0,.14-1.86,0-4.81-.21s-7-.53-11.55-.76-8.61-.33-11.57-.4S56.91,340.1,56.91,340Z" style="fill:#e0e0e0"></path><path d="M98.13,366.81c-.15,0-.1-2,0-5.13s.23-7.52.22-12.33-.17-9.18-.29-12.34-.18-5.11,0-5.13a24.71,24.71,0,0,1,.73,5.09c.3,3.15.56,7.53.57,12.38s-.22,9.22-.5,12.37A24.53,24.53,0,0,1,98.13,366.81Z" style="fill:#e0e0e0"></path><path d="M74.71,308.88a28.68,28.68,0,0,1,5.56-.48c3.44-.15,8.21-.21,13.46,0s10,.52,13.43.88,5.54.7,5.52.83-2.14.05-5.57-.13-8.17-.43-13.41-.6-10-.2-13.42-.23S74.72,309,74.71,308.88Z" style="fill:#e0e0e0"></path><path d="M123.57,344.31c-.27,0-1.55-8.77-2.84-19.65s-2.14-19.73-1.87-19.77,1.55,8.77,2.85,19.65S123.84,344.27,123.57,344.31Z" style="fill:#e0e0e0"></path><path d="M186.34,222.81a27.77,27.77,0,0,0-3.49-7.45,25.85,25.85,0,0,0-6.26-6.31,29.71,29.71,0,0,0-4.52-2.71,33.29,33.29,0,0,0-5.28-2.06,25.94,25.94,0,0,0-5.56-1c-1.83-.14-3.6-.23-5.29-.23-3.39,0-6.44.1-9,.28s-4.62.4-6,.62c-.71.11-1.25.2-1.62.29a2.11,2.11,0,0,1-.57.11,3.07,3.07,0,0,1,.54-.21,14.76,14.76,0,0,1,1.61-.39,58.55,58.55,0,0,1,6-.79c2.56-.22,5.62-.39,9-.39,1.7,0,3.49.07,5.34.2a26.57,26.57,0,0,1,5.66,1,32,32,0,0,1,5.35,2.11,28.56,28.56,0,0,1,4.58,2.77,25.24,25.24,0,0,1,6.28,6.5,22,22,0,0,1,2.66,5.48c.24.68.33,1.24.43,1.6A2.45,2.45,0,0,1,186.34,222.81Z" style="fill:#e0e0e0"></path><path d="M343,429.18c-41-19.12-57.6-65.05-63.61-107.9-1-7.15-3.1-14.51-.81-21.34s9.43-12.47,16.32-10.59c5.72,1.56,9.1,7.3,12.94,11.86a42.15,42.15,0,0,0,19.46,13c4.94,1.56,10.79,2,14.83-1.23,5.54-4.46,4.78-13.06,3.5-20.12l-7.17-39.49c-1.29-7.07-2.57-14.28-1.55-21.38s4.79-14.18,11.19-17.24,15.4-.64,18,6c1.09,2.78,1,5.87,1.74,8.77s2.65,5.91,5.58,6.24,5.44-2.17,7.2-4.61c6-8.41,9.39-18.48,12.41-28.44s5.88-20.1,11.14-29.05,13.34-16.72,23.36-19.07,21.91,2,26.21,11.51.27,20.65-4.64,29.83A160.63,160.63,0,0,1,421.75,233c-1.95,2-4.07,4.1-4.46,6.87-.71,5,4.57,8.88,9.5,9.62,5.58.83,11.2-.72,16.83-1s12,1.07,15,5.91c4.16,6.72-.56,15.36-5.63,21.36a137.54,137.54,0,0,1-36,30.11c-4.87,2.81-10.05,5.44-13.61,9.83s-5,11.18-1.57,15.72,10.2,5,15.47,3,9.63-5.77,14.48-8.64c9.07-5.37,21.74-6.9,29.43.41,5.06,4.8,6.77,12.43,5.85,19.37S463,358.94,459.43,365c-12.37,21-29.74,39.2-50.91,51S366.83,433.45,343,429.18" style="fill:#f5f5f5"></path><path d="M348,460.86a315.17,315.17,0,0,1,1.34-60.3c2.51-22.59,7.31-47.13,13.21-72.62L367,309.08c1.47-6.18,2.93-12.32,4.73-18.23A320.48,320.48,0,0,1,384,257.47c4.42-10.43,9-20.16,13.33-29.24s8.59-17.43,12.77-24.9a255.14,255.14,0,0,1,22.31-33.74c2.94-3.76,5.31-6.61,6.95-8.51l1.87-2.16a4.76,4.76,0,0,1,.67-.7,4.94,4.94,0,0,1-.57.79l-1.77,2.24c-1.57,2-3.87,4.86-6.74,8.66a269,269,0,0,0-21.91,33.88c-4.11,7.48-8.28,15.86-12.59,24.93s-8.83,18.82-13.2,29.24a325,325,0,0,0-12.16,33.27c-1.78,5.88-3.21,12-4.69,18.17s-2.93,12.48-4.43,18.85c-5.89,25.47-10.71,49.94-13.28,72.45a321,321,0,0,0-1.62,60.09" style="fill:#e0e0e0"></path><path d="M372.05,290.73a13.73,13.73,0,0,1-1.22-2.89c-.71-1.89-1.66-4.66-2.77-8.09-2.23-6.87-5-16.45-8-27s-5.9-20.11-8.23-26.92c-1.15-3.41-2.12-6.16-2.81-8.05a14.74,14.74,0,0,1-.93-3,14.3,14.3,0,0,1,1.41,2.81c.84,1.83,1.94,4.54,3.21,7.92,2.56,6.76,5.61,16.27,8.61,26.87s5.59,19.9,7.62,27.12l2.37,8.21A14.24,14.24,0,0,1,372.05,290.73Z" style="fill:#e0e0e0"></path><path d="M460,257.82a19.54,19.54,0,0,1-3.55,1.07c-2.29.62-5.62,1.49-9.7,2.7-8.17,2.36-19.34,6-31.48,10.58s-23,9.21-30.68,12.78c-3.88,1.76-7,3.26-9.13,4.29a19.54,19.54,0,0,1-3.39,1.49,20,20,0,0,1,3.16-2c2.08-1.17,5.12-2.81,9-4.69,7.64-3.79,18.43-8.57,30.61-13.18a329.39,329.39,0,0,1,31.7-10.23c4.13-1.1,7.5-1.83,9.84-2.29A20,20,0,0,1,460,257.82Z" style="fill:#e0e0e0"></path><path d="M350.14,398.69s-.32-.32-.82-1l-2.13-3c-1.84-2.62-4.4-6.5-7.5-11.32-6.21-9.65-14.37-23.24-23.17-38.36S299.7,316.2,293.7,306.44c-2.94-4.74-5.35-8.64-7.14-11.54l-1.93-3.15a5.41,5.41,0,0,1-.6-1.15s.32.32.82,1l2.13,3c1.84,2.63,4.4,6.5,7.5,11.33,6.21,9.64,14.37,23.24,23.18,38.37s16.82,28.77,22.82,38.54l7.14,11.54,1.92,3.15A4.65,4.65,0,0,1,350.14,398.69Z" style="fill:#e0e0e0"></path><path d="M464.13,338.6a5.58,5.58,0,0,1-1.12.7l-3.3,1.79-12.2,6.46c-10.3,5.46-24.45,13.15-40.06,21.68s-29.85,16.11-40.27,21.35c-5.21,2.62-9.44,4.7-12.4,6.08l-3.41,1.57a5.11,5.11,0,0,1-1.23.46,5.13,5.13,0,0,1,1.11-.71l3.3-1.78,12.2-6.46c10.31-5.45,24.45-13.15,40.07-21.68s29.84-16.11,40.26-21.35c5.21-2.62,9.44-4.7,12.4-6.08l3.42-1.57A4.79,4.79,0,0,1,464.13,338.6Z" style="fill:#e0e0e0"></path><path d="M364.92,124.64a6.08,6.08,0,0,1-.1-1.32q0-1.44-.09-3.6c0-3-.07-7.25-.07-11.89V107h.26c4.51,0,8.56,0,11.48.08l3.46.08a6.48,6.48,0,0,1,1.27.1,5.62,5.62,0,0,1-1.27.1l-3.46.08c-2.92,0-7,.08-11.48.08l.26-.26v.6c0,4.64,0,8.85-.08,11.89,0,1.44-.06,2.64-.08,3.6A6.08,6.08,0,0,1,364.92,124.64Z" style="fill:#e0e0e0"></path><path d="M397.75,144.27a9,9,0,0,1-.19-2.23c-.05-1.37-.08-3.28-.08-5.38v-.53h.27c2,0,3.87,0,5.19.08a9.24,9.24,0,0,1,2.14.18,9.24,9.24,0,0,1-2.14.18c-1.32.05-3.15.08-5.19.08l.26-.26v.27c0,2.1,0,4-.08,5.38A10.07,10.07,0,0,1,397.75,144.27Z" style="fill:#e0e0e0"></path><path d="M405.35,158.77a9.37,9.37,0,0,1-2.23.18c-1.37.05-3.27.08-5.37.08h-.54v-.26c0-2,0-3.88.08-5.2a9.33,9.33,0,0,1,.18-2.14,8.68,8.68,0,0,1,.18,2.14c.05,1.32.08,3.16.08,5.2l-.26-.26h.28c2.1,0,4,0,5.37.07A9.64,9.64,0,0,1,405.35,158.77Z" style="fill:#e0e0e0"></path><path d="M427.58,151.16a10.07,10.07,0,0,1,.18,2.23c.05,1.38.08,3.28.08,5.38v.53h-.26c-2,0-3.88,0-5.2-.08a9.24,9.24,0,0,1-2.14-.18,9.24,9.24,0,0,1,2.14-.18c1.32-.05,3.16-.08,5.2-.08l-.26.26v-.27c0-2.1,0-4,.07-5.38A9,9,0,0,1,427.58,151.16Z" style="fill:#e0e0e0"></path><path d="M420,136.39a9.37,9.37,0,0,1,2.23-.18c1.37-.05,3.27-.08,5.38-.08h.53v.26c0,2,0,3.88-.08,5.2a9.33,9.33,0,0,1-.18,2.14,8.68,8.68,0,0,1-.18-2.14c-.05-1.32-.08-3.16-.08-5.2l.26.26h-.27c-2.11,0-4,0-5.38-.08A9.37,9.37,0,0,1,420,136.39Z" style="fill:#e0e0e0"></path><path d="M381.73,187.76a6.14,6.14,0,0,1-1.33.1l-3.6.09c-3,0-7.24.07-11.88.07h-.86v-.26c0-4.5,0-8.56.08-11.48,0-1.38.06-2.54.08-3.46a5.62,5.62,0,0,1,.1-1.27,6.48,6.48,0,0,1,.1,1.27c0,.92.05,2.08.08,3.46.05,2.92.08,7,.08,11.48l-.26-.26h.6c4.64,0,8.84,0,11.88.08l3.6.08A7.08,7.08,0,0,1,381.73,187.76Z" style="fill:#e0e0e0"></path><path d="M459.6,170.36a6.08,6.08,0,0,1,.1,1.32c0,.95.05,2.16.08,3.6.05,3,.08,7.24.08,11.88V188h-.26c-4.51,0-8.56,0-11.48-.08l-3.46-.08a5.62,5.62,0,0,1-1.27-.1,6.48,6.48,0,0,1,1.27-.1l3.46-.08c2.92-.05,7-.08,11.48-.08l-.26.26v-.6c0-4.64,0-8.84.08-11.88,0-1.44.06-2.65.08-3.6A6.08,6.08,0,0,1,459.6,170.36Z" style="fill:#e0e0e0"></path><path d="M442.79,107.23a7,7,0,0,1,1.32-.1l3.61-.08c3,0,7.24-.08,11.88-.08h.86v.26c0,4.51,0,8.56-.08,11.49,0,1.38-.06,2.54-.08,3.46a5.57,5.57,0,0,1-.1,1.26,5.57,5.57,0,0,1-.1-1.26c0-.92-.05-2.08-.08-3.46,0-2.93-.08-7-.08-11.49l.26.26h-.6c-4.64,0-8.84,0-11.88-.07l-3.61-.09A6.08,6.08,0,0,1,442.79,107.23Z" style="fill:#e0e0e0"></path><path d="M454,113.72a1.62,1.62,0,1,1-1.62-1.62A1.63,1.63,0,0,1,454,113.72Z" style="fill:#e0e0e0"></path><rect x="368.75" y="112.1" width="7.59" height="3.24" rx="0.49" style="fill:#e0e0e0"></rect><rect x="376.82" y="112.99" width="1.33" height="1.46" style="fill:#e0e0e0"></rect><path d="M76.35,58a7.19,7.19,0,0,1-.1-1.44c0-1,0-2.34-.09-3.92,0-3.31-.07-7.89-.07-12.94v-.91h.26c4.9,0,9.32,0,12.5.08l3.77.08A6.63,6.63,0,0,1,94,39a7.64,7.64,0,0,1-1.38.1l-3.77.08c-3.18,0-7.6.07-12.5.08l.26-.26v.65c0,5,0,9.63-.08,12.94,0,1.58-.06,2.9-.08,3.92A8.29,8.29,0,0,1,76.35,58Z" style="fill:#e0e0e0"></path><path d="M112.09,79.35a12,12,0,0,1-.18-2.43c0-1.5-.08-3.57-.08-5.86v-.55h.26c2.22,0,4.22,0,5.66.08a10.14,10.14,0,0,1,2.33.18,10.9,10.9,0,0,1-2.33.18c-1.44,0-3.44.08-5.66.08l.26-.26v.29c0,2.29,0,4.36-.07,5.86A11.45,11.45,0,0,1,112.09,79.35Z" style="fill:#e0e0e0"></path><path d="M120.38,95.14a12,12,0,0,1-2.43.18c-1.5.05-3.57.08-5.86.08h-.55v-.26c0-2.22,0-4.22.08-5.66a10.14,10.14,0,0,1,.18-2.33,10.9,10.9,0,0,1,.18,2.33c0,1.44.08,3.44.08,5.66l-.26-.26h.29c2.29,0,4.36,0,5.86.07A11.45,11.45,0,0,1,120.38,95.14Z" style="fill:#e0e0e0"></path><path d="M144.58,86.85a12,12,0,0,1,.18,2.43c.05,1.5.08,3.57.08,5.86v.55h-.26c-2.22,0-4.22,0-5.66-.08a10.14,10.14,0,0,1-2.33-.18,10.9,10.9,0,0,1,2.33-.18c1.44,0,3.44-.08,5.66-.08l-.26.26v-.29c0-2.29,0-4.36.07-5.86A11.45,11.45,0,0,1,144.58,86.85Z" style="fill:#e0e0e0"></path><path d="M136.29,70.77a11.45,11.45,0,0,1,2.43-.19c1.5,0,3.57-.07,5.86-.07h.55v.26c0,2.22,0,4.22-.08,5.66a10.23,10.23,0,0,1-.18,2.33,11,11,0,0,1-.18-2.33c0-1.44-.07-3.44-.08-5.66l.26.26h-.29c-2.29,0-4.36,0-5.86-.08A11.13,11.13,0,0,1,136.29,70.77Z" style="fill:#e0e0e0"></path><path d="M94.65,126.71a7.19,7.19,0,0,1-1.44.1l-3.92.08c-3.31,0-7.89.08-12.94.08h-.92v-.26c0-4.91,0-9.32.08-12.51,0-1.51.06-2.78.08-3.76a9,9,0,0,1,.1-1.38,6.63,6.63,0,0,1,.1,1.38c0,1,0,2.25.08,3.76,0,3.19.08,7.6.08,12.51l-.26-.26h.66c5.05,0,9.63,0,12.94.08l3.92.08A7.19,7.19,0,0,1,94.65,126.71Z" style="fill:#e0e0e0"></path><path d="M179.45,107.75a7.3,7.3,0,0,1,.1,1.44c0,1,0,2.35.09,3.93,0,3.31.07,7.88.07,12.94V127h-.26c-4.91,0-9.32,0-12.5-.08l-3.77-.08a7.64,7.64,0,0,1-1.38-.1,6.63,6.63,0,0,1,1.38-.1l3.77-.08c3.18,0,7.59-.08,12.5-.08l-.26.26v-.65c0-5.06,0-9.63.08-12.94,0-1.58.06-2.9.08-3.93A8.44,8.44,0,0,1,179.45,107.75Z" style="fill:#e0e0e0"></path><path d="M161.15,39a7.19,7.19,0,0,1,1.44-.1l3.92-.09c3.31,0,7.89-.07,12.94-.07h.92V39c0,4.9,0,9.32-.08,12.5,0,1.52-.06,2.78-.09,3.77a6.63,6.63,0,0,1-.1,1.38,8.47,8.47,0,0,1-.09-1.38c0-1,0-2.25-.09-3.77,0-3.18-.07-7.6-.08-12.5l.26.26h-.65c-5,0-9.63,0-12.94-.08l-3.92-.08A8.29,8.29,0,0,1,161.15,39Z" style="fill:#e0e0e0"></path><path d="M173.34,46.08a1.77,1.77,0,1,1-1.77-1.77A1.76,1.76,0,0,1,173.34,46.08Z" style="fill:#e0e0e0"></path><rect x="80.52" y="44.31" width="8.27" height="3.53" rx="0.49" style="fill:#e0e0e0"></rect><rect x="89.31" y="45.28" width="1.45" height="1.59" style="fill:#e0e0e0"></rect></g><g id="Floor--inject-53"><path d="M472,460.67c0,.14-94.9.26-211.94.26s-212-.12-212-.26,94.88-.26,212-.26S472,460.52,472,460.67Z" style="fill:#263238"></path></g><g id="Character--inject-53"><path d="M179.7,261.42a2.11,2.11,0,0,1-.17-.4c-.11-.29-.26-.68-.44-1.18-.39-1-.94-2.59-1.61-4.59s-1.46-4.48-2.18-7.4a51.29,51.29,0,0,1-1.54-10.09,33.85,33.85,0,0,1,1.63-12.25,24.22,24.22,0,0,1,3.09-6.19,31.82,31.82,0,0,1,4.92-5.44c1.84-1.7,3.82-3.32,5.72-5.1a34.83,34.83,0,0,0,5.14-6,45.26,45.26,0,0,0,6.25-15.41,97.72,97.72,0,0,0,2-16.65c.27-5.42.37-10.67.75-15.66a81,81,0,0,1,2.14-14,47.19,47.19,0,0,1,2-6.12,42.71,42.71,0,0,1,2.66-5.33,34.72,34.72,0,0,1,6.35-8,28,28,0,0,1,6.3-4.44,24.07,24.07,0,0,1,4.57-1.69l1.23-.27.43-.08a2,2,0,0,1-.41.13l-1.23.32a26.33,26.33,0,0,0-4.5,1.78,27.84,27.84,0,0,0-6.19,4.46,35.05,35.05,0,0,0-6.24,8,44.12,44.12,0,0,0-2.6,5.29,46.54,46.54,0,0,0-2,6.08,81,81,0,0,0-2.08,14c-.37,5-.46,10.21-.72,15.65a98,98,0,0,1-2,16.73A45.37,45.37,0,0,1,194.68,203a34.7,34.7,0,0,1-5.22,6.11c-1.92,1.8-3.9,3.42-5.74,5.09a32.12,32.12,0,0,0-4.87,5.35,24.35,24.35,0,0,0-3,6.07,33.68,33.68,0,0,0-1.67,12.1,51.48,51.48,0,0,0,1.45,10c.69,2.91,1.45,5.38,2.09,7.39s1.16,3.54,1.52,4.62c.16.51.29.91.39,1.21Z" style="fill:#263238"></path><path d="M295.46,108.13c9.36-1.88,18.54,5.34,22.59,14s4.39,18.49,5.58,28c4.66,37,23.22,70.82,45.32,100.8,12.39,16.81,26.55,34,28.54,54.83.41,4.24.18,8.84-2.34,12.28s-8,4.88-11.14,2l-97.81-6.24Z" style="fill:#263238"></path><path d="M274.37,105.21c-13.17-10.93-35.55-7.46-47.87,3.36S208,135.82,206,152.11c-1.57,13-.74,26.14-1.72,39.18s-4.05,26.45-12.25,36.63c-9.4,11.67-25.16,18.76-29.73,33-2.52,7.84-1,16.37,1,24.36,1.6,6.48,4.07,13.58,10,16.59,5,2.55,11,1.41,16.52.21q32.7-7.12,65.35-14.37c3.36-.75,6.94-1.62,9.28-4.15,2.62-2.83,3-7,3.27-10.83,3.83-57.35,6-110.08,6.67-167.55" style="fill:#263238"></path><path d="M308.49,125.91l.07,9.25,4.14,138c.22,16.07-10.86,29.55-28.06,29.66h0c-17.37.12-31.85-12.93-32.35-29.16-.52-17-1.38-34.94-1.38-34.94s-22-3-27.37-31.54c-2.66-14.17-2.58-37.53-1.91-56.64a30.24,30.24,0,0,1,32.56-29.1Z" style="fill:#ffbe9d"></path><path d="M227,168.27c.47.47,3.19-1.67,7.14-1.76s6.9,1.79,7.32,1.3c.2-.22-.29-1.07-1.57-2a10.1,10.1,0,0,0-5.88-1.63,9.63,9.63,0,0,0-5.66,2C227.19,167.19,226.8,168.06,227,168.27Z" style="fill:#263238"></path><path d="M270,166.86a3.67,3.67,0,0,0,3.64,3.6,3.52,3.52,0,0,0,3.7-3.41,3.68,3.68,0,0,0-3.64-3.61A3.52,3.52,0,0,0,270,166.86Z" style="fill:#263238"></path><path d="M265.88,162.25c.47.46,3.19-1.67,7.14-1.77s6.9,1.8,7.32,1.3c.2-.22-.28-1.07-1.57-2a10.1,10.1,0,0,0-5.88-1.63,9.75,9.75,0,0,0-5.67,2C266,161.16,265.65,162,265.88,162.25Z" style="fill:#263238"></path><path d="M252.35,191.94c0-.23-2.46-.58-6.45-1-1-.08-2-.25-2.16-.94s.14-1.82.59-3c.88-2.46,1.81-5,2.77-7.76,3.84-11.05,6.59-20.13,6.15-20.28s-3.92,8.69-7.76,19.74q-1.4,4.08-2.65,7.8c-.35,1.16-1,2.48-.41,4a2.56,2.56,0,0,0,1.7,1.43,7.51,7.51,0,0,0,1.72.19C249.86,192.21,252.34,192.16,252.35,191.94Z" style="fill:#263238"></path><path d="M250.91,238.76a72.81,72.81,0,0,0,38-11.29s-8.76,19.92-37.48,18Z" style="fill:#eb996e"></path><path d="M254.28,201.41a7.11,7.11,0,0,1,6.31-2.82,6.51,6.51,0,0,1,4.55,2.28,4.12,4.12,0,0,1,.45,4.7c-1,1.53-3.24,1.94-5.14,1.46a15,15,0,0,1-5.14-2.88,4.34,4.34,0,0,1-1.16-1.14,1.31,1.31,0,0,1,0-1.47" style="fill:#eb996e"></path><path d="M264.05,194.35c-.64,0-.53,4.27-4.12,7.41s-8.16,2.8-8.18,3.4c-.05.27,1,.8,3,.8a10.66,10.66,0,0,0,6.84-2.59,9.36,9.36,0,0,0,3.18-6.21C264.85,195.36,264.34,194.32,264.05,194.35Z" style="fill:#263238"></path><path d="M267.24,148.22c.42,1.06,4.35.44,9,.87s8.43,1.59,9,.61c.26-.47-.42-1.46-2-2.46a15.69,15.69,0,0,0-13.72-1.13C267.89,146.84,267.06,147.71,267.24,148.22Z" style="fill:#263238"></path><path d="M227.59,160.94c.72.87,3.41-.13,6.69-.27s6.05.44,6.67-.52c.26-.46-.2-1.35-1.43-2.16a9.29,9.29,0,0,0-5.48-1.32,9.19,9.19,0,0,0-5.28,2C227.62,159.57,227.27,160.51,227.59,160.94Z" style="fill:#263238"></path><path d="M248.14,152.6c-1.78-1.66-2.23-4-2.66-6.25a13.94,13.94,0,0,0-2.9,8.46,113.45,113.45,0,0,0-29.45.72c-4.7-14.21,1.11-30.73,12.52-40.41S254.59,101,269.34,103.5c4.79.11,11.73,5.17,11.73,5.17s6.8-2.6,12.16-2.24c7.85.53,14.49,4.13,18.68,10.79s5.28,14.81,5.4,22.68a106.07,106.07,0,0,1-4.51,32.15h0c-11.56-2.61-17.87-9.06-23.68-19.39-3.78-6.72-7-19.21-9.08-26.18,0,0-4.63,1.69-9.35,7.72,0,0-8.5,10.17-5.22,18Z" style="fill:#263238"></path><path d="M307.81,170.32c1.9-1.52,6.61-2.09,8.71-.85a10,10,0,0,1,4.18,5.79,11.92,11.92,0,0,1-2.09,11.22c-2.64,3-7.43,4-10.8,1.91" style="fill:#ffbe9d"></path><path d="M310.87,183.81a7.23,7.23,0,0,0,2.62-.24,5,5,0,0,0,2.28-1.59,4.66,4.66,0,0,0,.92-3.2,4.58,4.58,0,0,0-1.42-3,4.93,4.93,0,0,0-2.5-1.21,7.28,7.28,0,0,0-2.62.17,1.57,1.57,0,0,1,.66-.34,4.69,4.69,0,0,1,2-.2,5.06,5.06,0,0,1,2.76,1.22,5.08,5.08,0,0,1,.55,6.87,5.18,5.18,0,0,1-2.54,1.64,4.55,4.55,0,0,1-2,.12A1.6,1.6,0,0,1,310.87,183.81Z" style="fill:#eb996e"></path><path d="M229.37,155.63a2.32,2.32,0,0,1,0-.23l-.07-.7c-.06-.61-.14-1.51-.22-2.68-.16-2.32-.34-5.7-.25-9.88a61.75,61.75,0,0,1,2-14.53,38.53,38.53,0,0,1,8.43-15.78,28.79,28.79,0,0,1,7.25-5.87,25.47,25.47,0,0,1,8.18-2.92,33.72,33.72,0,0,1,14.59,1,56.11,56.11,0,0,1,9.25,3.5c1.05.51,1.86.92,2.4,1.22l.61.33a.93.93,0,0,1,.2.13l-.22-.08-.64-.29c-.55-.27-1.37-.65-2.43-1.13a61.47,61.47,0,0,0-9.26-3.32,33.75,33.75,0,0,0-14.41-.9,25.18,25.18,0,0,0-8,2.89,28.8,28.8,0,0,0-7.12,5.78,38.36,38.36,0,0,0-8.34,15.56,62.68,62.68,0,0,0-2.06,14.41c-.14,4.16,0,7.53.08,9.86,0,1.13.09,2,.12,2.68,0,.29,0,.51,0,.7S229.38,155.63,229.37,155.63Z" style="fill:#455a64"></path><path d="M252.68,152.78a2.38,2.38,0,0,1-.11-.61c-.06-.46-.14-1-.23-1.78-.18-1.54-.43-3.78-.6-6.55a58,58,0,0,1,.13-9.78,33.94,33.94,0,0,1,3.23-11.52,24.45,24.45,0,0,1,3.44-5.2,22.24,22.24,0,0,1,4.36-3.83,28.75,28.75,0,0,1,9-3.89,40.84,40.84,0,0,1,6.5-1.11c.77-.07,1.37-.1,1.78-.11a2.53,2.53,0,0,1,.63,0,2.82,2.82,0,0,1-.62.1l-1.77.21A50,50,0,0,0,272,110a29.32,29.32,0,0,0-8.79,3.94,22.86,22.86,0,0,0-7.61,8.86,34.21,34.21,0,0,0-3.21,11.35,61.52,61.52,0,0,0-.24,9.7c.12,2.77.32,5,.43,6.55.06.73.1,1.32.13,1.79A2.24,2.24,0,0,1,252.68,152.78Z" style="fill:#455a64"></path><path d="M328.32,173.12a9.5,9.5,0,0,0-.42-3.31,12.68,12.68,0,0,0-6-6.62c-3.32-2.05-8-2.64-13-3.93a21.87,21.87,0,0,1-7.43-3.29,23.32,23.32,0,0,1-5.81-6.5,64.79,64.79,0,0,1-4-7.71c-1.16-2.56-2.19-5.07-3.06-7.5a98.79,98.79,0,0,1-3.76-13.17,91.16,91.16,0,0,1-1.49-9.12c-.13-1.08-.18-1.92-.23-2.49a8.28,8.28,0,0,1,0-.88,5.26,5.26,0,0,1,.15.86c.07.57.16,1.41.33,2.49.29,2.15.78,5.27,1.64,9.06A104.94,104.94,0,0,0,289,134.1c.88,2.41,1.91,4.91,3.07,7.45a65.19,65.19,0,0,0,4,7.64,22.83,22.83,0,0,0,5.68,6.37A21.5,21.5,0,0,0,309,158.8c2.48.67,4.89,1.12,7.11,1.72a22.19,22.19,0,0,1,6,2.35c3.4,2,5.41,4.75,6,6.88a7.33,7.33,0,0,1,.3,1.43,10.43,10.43,0,0,1,0,1.07A7.68,7.68,0,0,1,328.32,173.12Z" style="fill:#455a64"></path><path d="M385.86,284s.32-.33.88-1a14.79,14.79,0,0,0,2.05-3.1,20,20,0,0,0,1.38-13.35c-1.2-5.68-4.57-11.88-9-18.09a149.09,149.09,0,0,0-16.6-18.65c-6.32-6.24-12.48-12.07-17.56-17.88a92.72,92.72,0,0,1-12-16.6,55.61,55.61,0,0,1-5.16-12.78c-.19-.79-.38-1.49-.51-2.11s-.2-1.13-.28-1.56-.11-.72-.15-1a1.19,1.19,0,0,1,0-.33,1.13,1.13,0,0,1,.09.32c.05.24.12.55.21,1s.19.95.32,1.55.35,1.3.55,2.09a58.19,58.19,0,0,0,5.29,12.65,94.08,94.08,0,0,0,12,16.46c5.08,5.77,11.24,11.58,17.57,17.83a147.05,147.05,0,0,1,16.62,18.74c4.47,6.26,7.83,12.52,9,18.29a21.87,21.87,0,0,1,.27,7.87A17.5,17.5,0,0,1,389,280a13.61,13.61,0,0,1-2.16,3.07A8.2,8.2,0,0,1,385.86,284Z" style="fill:#263238"></path><path d="M296.87,106.63A19.52,19.52,0,0,1,290,88.8a20.79,20.79,0,0,1,11.55-15.34,20,20,0,0,1,17-.1A17.75,17.75,0,0,1,328.45,87a16,16,0,0,1-7,15.09c-2.41,1.53-5.19,2.32-7.86,3.35s-5.33,2.36-7.05,4.63-2.2,5.7-.44,7.94" style="fill:#263238"></path><path d="M299.43,77.91a2.68,2.68,0,0,1,.32-.51,4.6,4.6,0,0,1,.45-.57,5.64,5.64,0,0,1,.69-.71,11.19,11.19,0,0,1,5.62-2.78,11.7,11.7,0,0,1,9,1.92,14.51,14.51,0,0,1,5.92,9.6A17.27,17.27,0,0,1,319.16,96a20.23,20.23,0,0,1-6.47,6.7,23.63,23.63,0,0,1-5.67,2.73c-.7.24-1.26.39-1.64.48a3,3,0,0,1-.59.11,2.54,2.54,0,0,1,.56-.21c.37-.12.91-.3,1.6-.57a25.73,25.73,0,0,0,5.53-2.84,20.13,20.13,0,0,0,6.26-6.64,17,17,0,0,0,2.19-10.8,14.17,14.17,0,0,0-5.69-9.29,11.55,11.55,0,0,0-4.44-1.92,11.81,11.81,0,0,0-4.23,0A11.35,11.35,0,0,0,301,76.27,20.86,20.86,0,0,0,299.43,77.91Z" style="fill:#455a64"></path><path d="M311.58,107.3a5.41,5.41,0,0,0-4.42-1.78c-1.65,0-3.27.43-4.91.54a13.61,13.61,0,0,1-7.77-1.8,1.33,1.33,0,0,0-2.08.11,2.1,2.1,0,0,0,.42,2.33,4.68,4.68,0,0,0,2.19,1.2c3.59,1.06,7.6.59,10.93,2.28,1.58.81,3.3,2.1,4.91,1.37S312.57,108.62,311.58,107.3Z" style="fill:#DD5656"></path><path d="M294.76,107.81s0,0,0,.13l0,.14-.14-.15a2.23,2.23,0,0,1-.23-1.74A2.35,2.35,0,0,1,295,105c.26-.25.5-.29.53-.23a7.43,7.43,0,0,0-.64,1.54,8.1,8.1,0,0,0-.11,1.57h-.16C294.7,107.81,294.74,107.79,294.76,107.81Z" style="fill:#263238"></path><path d="M298.34,108.51s-.22-.06-.38-.32a1.89,1.89,0,0,1,.3-2.21c.22-.22.41-.27.45-.22s-.36.6-.44,1.34S298.46,108.43,298.34,108.51Z" style="fill:#263238"></path><path d="M302.09,109.33c-.13-.08.21-.8.24-1.75s-.24-1.69-.11-1.76.68.68.63,1.78S302.19,109.42,302.09,109.33Z" style="fill:#263238"></path><path d="M306.4,110.88a6.58,6.58,0,0,0,.62-2.71,6.42,6.42,0,0,0-1.09-2.56s.37.09.75.51a3.38,3.38,0,0,1,.86,2,3.42,3.42,0,0,1-.5,2.13C306.74,110.73,306.45,110.93,306.4,110.88Z" style="fill:#263238"></path><path d="M309.18,111.46c-.05-.07.24-.3.58-.77a3.92,3.92,0,0,0,.38-4.16c-.25-.51-.49-.8-.43-.86s.39.16.75.68a3.66,3.66,0,0,1,.61,2.37,3.61,3.61,0,0,1-1,2.21C309.59,111.38,309.21,111.51,309.18,111.46Z" style="fill:#263238"></path><path d="M311,114.14a1.19,1.19,0,0,1,.08.35,3.92,3.92,0,0,1,0,1,5.88,5.88,0,0,1-1.74,3.36,7.06,7.06,0,0,1-2.21,1.5,9.35,9.35,0,0,1-3,.65,16.51,16.51,0,0,1-6.77-1.28,23.52,23.52,0,0,1-10-7.37,21.31,21.31,0,0,1-2.07-3.17,6.3,6.3,0,0,1-.56-1.27,41.39,41.39,0,0,0,2.92,4.21,24.46,24.46,0,0,0,9.88,7.12,16.51,16.51,0,0,0,6.56,1.28,7.4,7.4,0,0,0,4.95-1.93,5.94,5.94,0,0,0,1.8-3.13C311,114.64,310.94,114.14,311,114.14Z" style="fill:#455a64"></path><path d="M410.78,360.69c-1.2-11.55-7.73-21.85-15-30.94s-15.44-17.54-21-27.76c-3.72-6.85-6.14-14.33-9.41-21.41s-7.59-14-14.05-18.35-23.8-10.68-37.46-8.29L312,257.15c-20.37,7.41-42.23,8.4-60.3-.58-9.94,3.69-51.81,14.05-59.18,26.49-1.75,3-1.25,10.1.62,19.49L160,282.85,130.54,359.1l-.18.59a39,39,0,0,0,24.82,48h0A77.43,77.43,0,0,0,213,388.47l5.51-4.88c4.28,11.62,7.33,19.42,7.33,19.42l-19,57.66H353.5l-21.73-61,7-18.05c.9,1.6,1.86,3.2,2.88,4.83,6.57,10.52,21.69,21.94,34.09,21.78,7.24-.09,15.76-4.91,21.24-9.64C407.08,389.92,412.15,373.93,410.78,360.69Z" style="fill:#DD5656"></path><path d="M160,282.85l.22.11.64.36,2.45,1.41,9.16,5.39,31.71,18.82.19.12-.1.2c-3.18,6.9-5.19,15-6.56,23.58-1.64,10.33-2.55,20.31-4.51,29.21a85.09,85.09,0,0,1-3.6,12.41,57,57,0,0,1-5,10.07,42,42,0,0,1-11,11.91,31.49,31.49,0,0,1-3.78,2.32l-1,.51a1.5,1.5,0,0,1-.36.15l.34-.2,1-.56a34.72,34.72,0,0,0,3.71-2.38,42.88,42.88,0,0,0,10.83-11.94,58.2,58.2,0,0,0,4.94-10A88,88,0,0,0,192.69,362c1.92-8.87,2.81-18.83,4.46-29.2,1.37-8.56,3.4-16.74,6.63-23.7l.09.32-31.61-19-9.08-5.51-2.41-1.48-.62-.39C160,282.91,159.94,282.86,160,282.85Z" style="fill:#263238"></path><path d="M338.78,381.63s-.11-.15-.26-.47l-.65-1.39-2.29-5.15c-1.9-4.36-4.59-10.36-7.34-17.1a47.27,47.27,0,0,1-2.87-9.87,17.09,17.09,0,0,1,.36-8.37,14.46,14.46,0,0,1,3-4.8c.46-.49.81-.87,1.07-1.11a2.65,2.65,0,0,1,.41-.35s-.48.57-1.32,1.59a15.07,15.07,0,0,0-2.79,4.79,16.9,16.9,0,0,0-.23,8.18,48.92,48.92,0,0,0,2.87,9.75c2.74,6.71,5.38,12.75,7.2,17.15.88,2.15,1.6,3.91,2.14,5.21.22.58.41,1.05.56,1.43A2.85,2.85,0,0,1,338.78,381.63Z" style="fill:#263238"></path><path d="M398.66,362a3.84,3.84,0,0,1-.31-.63c-.19-.46-.45-1.06-.77-1.82l-2.79-6.71c-2.36-5.67-5.64-13.49-9.41-22.06s-7.34-16.29-9.82-21.88c-1.33-2.73-3.38-4.45-5.05-4.72a6.29,6.29,0,0,0-1.94,0,5.54,5.54,0,0,1-.69.09l.17-.07c.11,0,.28-.08.5-.12a5.72,5.72,0,0,1,2-.08c1.78.22,3.95,2,5.35,4.75,2.58,5.58,6.22,13.24,10,21.84s7,16.42,9.27,22.13c1.14,2.85,2,5.17,2.64,6.78.28.77.51,1.38.68,1.86A4.4,4.4,0,0,1,398.66,362Z" style="fill:#263238"></path><path d="M401,354.93c-.09,0-.44-1.24-1.21-3.2a38,38,0,0,0-3.86-7.21,37.54,37.54,0,0,0-5.38-6.17c-1.55-1.42-2.61-2.19-2.56-2.27a3.3,3.3,0,0,1,.8.47,20.85,20.85,0,0,1,2,1.52,32.17,32.17,0,0,1,5.57,6.15,31.83,31.83,0,0,1,3.77,7.38,20.82,20.82,0,0,1,.71,2.41A3.25,3.25,0,0,1,401,354.93Z" style="fill:#263238"></path><path d="M312.13,390.14a5.19,5.19,0,0,1-.61.56c-.41.36-1,.89-1.81,1.54-1.58,1.32-3.91,3.18-6.89,5.37a107.33,107.33,0,0,1-25.13,14,75.55,75.55,0,0,1-15.36,4,63.39,63.39,0,0,1-12.95.64,52.7,52.7,0,0,1-8.66-1.18c-1-.2-1.78-.45-2.31-.58a7.46,7.46,0,0,1-.79-.25,4.37,4.37,0,0,1,.82.14c.53.1,1.3.32,2.32.49a57.29,57.29,0,0,0,8.63,1,64.79,64.79,0,0,0,12.87-.74,78,78,0,0,0,15.24-4,112.44,112.44,0,0,0,25.11-13.82c3-2.14,5.35-4,7-5.23l1.87-1.46A4.29,4.29,0,0,1,312.13,390.14Z" style="fill:#263238"></path><g style="opacity:0.30000000000000004"><path d="M310,391.91c-12.39,6.26-25.13,12.61-38.93,14.07-3.62.38-7.29.42-10.86,1.17s-7.11,2.32-9.38,5.17c-.68.86-1.24,2.11-.6,3a2.89,2.89,0,0,0,2.11.89c10.63,1.13,21.37-1.83,30.93-6.62s18.1-11.32,26.58-17.83"></path></g><g style="opacity:0.30000000000000004"><path d="M325.84,349.29c1,8.69-1.11,15.34-1.31,24.08s2.21,19.16,7.24,26.31l7-18s-2.34-6.11-3.79-9.13a161.93,161.93,0,0,1-8.89-22.47"></path></g><g style="opacity:0.30000000000000004"><path d="M168.33,399.42c5.33,2.23,11.55.82,16.14-2.68,7.58-5.77,12.3-14.66,14.7-23.88S201.85,354,202,344.51s.13-19.12,2-28.46c.18-.88.15-2.12-.73-2.3-.72-.15-1.32.6-1.59,1.29-3.58,9.27-5.29,24.88-6.57,36-1.35,11.75-2.94,15.86-6.67,25.65s-9.81,17.5-20.07,22.69"></path></g><path d="M369.59,307.43a2.39,2.39,0,0,1,.28.61,9.21,9.21,0,0,1,.46,1.86,21.22,21.22,0,0,1-.41,7c-.28,1.46-.65,3-1.09,4.73a46.27,46.27,0,0,1-1.69,5.32,38,38,0,0,1-6.56,11,31.55,31.55,0,0,1-10,7.88,24.87,24.87,0,0,1-10.12,2.45,20,20,0,0,1-6.95-1.05,12.51,12.51,0,0,1-1.77-.72,5.16,5.16,0,0,1-.59-.31,3,3,0,0,1,.63.21,16.88,16.88,0,0,0,1.79.63,21.22,21.22,0,0,0,6.88.87,25,25,0,0,0,9.92-2.51,31.63,31.63,0,0,0,9.84-7.79,38.27,38.27,0,0,0,6.5-10.79,44.49,44.49,0,0,0,1.72-5.25c.46-1.67.85-3.24,1.15-4.69a22.42,22.42,0,0,0,.57-6.91A15.67,15.67,0,0,0,369.59,307.43Z" style="fill:#263238"></path><path d="M356.69,266.16l-.48.12a9.44,9.44,0,0,0-1.38.39,12.24,12.24,0,0,0-4.63,2.94,25.36,25.36,0,0,0-4.93,7.2c-1.51,3.06-2.73,6.81-4.86,10.6a20.11,20.11,0,0,1-4.19,5.38,13.36,13.36,0,0,1-6.67,3.11,28,28,0,0,1-7.91,0c-2.69-.3-5.44-.77-8.28-.89a23.65,23.65,0,0,0-4.28.16,15,15,0,0,0-4.15,1.27,20.15,20.15,0,0,0-6.77,5.87c-1.93,2.41-3.67,5.07-5.71,7.57a28.93,28.93,0,0,1-3.39,3.53,18.79,18.79,0,0,1-4.19,2.65,21.35,21.35,0,0,1-9.61,1.92,22.86,22.86,0,0,1-9.24-2.29,19.26,19.26,0,0,1-7.08-5.85,46,46,0,0,1-4.17-7.76,36.24,36.24,0,0,0-4-7.22,14,14,0,0,0-2.79-2.76l-.8-.54-.84-.45a13.9,13.9,0,0,0-1.73-.75,26.17,26.17,0,0,0-7.19-1.08c-2.35-.09-4.62-.08-6.78-.29a18.72,18.72,0,0,1-6-1.45,11.44,11.44,0,0,1-4.35-3.38,13.75,13.75,0,0,1-2.94-8.22,12.2,12.2,0,0,1,1.09-5.44,8.6,8.6,0,0,1,.7-1.27l.28-.41s-.07.16-.23.44a8.82,8.82,0,0,0-.65,1.29,12.2,12.2,0,0,0-1,5.38,13.64,13.64,0,0,0,3,8.05,11.2,11.2,0,0,0,4.26,3.26,18.68,18.68,0,0,0,5.91,1.38c2.14.2,4.41.18,6.77.26a26.24,26.24,0,0,1,7.31,1.07,14,14,0,0,1,1.79.77l.87.46.83.56a14.61,14.61,0,0,1,2.89,2.83,36.65,36.65,0,0,1,4.11,7.31,45.54,45.54,0,0,0,4.13,7.67,18.83,18.83,0,0,0,6.91,5.68,22.31,22.31,0,0,0,9,2.23,20.8,20.8,0,0,0,9.37-1.87,18.1,18.1,0,0,0,4.07-2.58,29.3,29.3,0,0,0,3.33-3.45c2-2.48,3.75-5.13,5.71-7.57a20.58,20.58,0,0,1,6.95-6,15.82,15.82,0,0,1,4.3-1.31,25.69,25.69,0,0,1,4.37-.15c2.88.13,5.64.61,8.31.92a27.89,27.89,0,0,0,7.79.05,13,13,0,0,0,6.48-3,19.85,19.85,0,0,0,4.13-5.25c2.13-3.74,3.37-7.47,4.92-10.55a25.54,25.54,0,0,1,5.05-7.21,12,12,0,0,1,4.73-2.9,7.81,7.81,0,0,1,1.41-.34Z" style="fill:#fafafa"></path><path d="M327.76,355.12l-.33.18a6.41,6.41,0,0,1-1,.42,5.83,5.83,0,0,1-4.21-.3,45.17,45.17,0,0,1-5.75-3.55c-2.19-1.48-4.47-3.45-7.28-5.15a18.62,18.62,0,0,0-4.7-2,18.22,18.22,0,0,0-5.52-.52,29.66,29.66,0,0,0-11.73,3.52A105,105,0,0,0,275.66,355c-3.94,2.66-8.17,5.37-13.05,6.9a24.23,24.23,0,0,1-14.67-.05,52.22,52.22,0,0,1-12.43-5.9c-3.73-2.3-7.16-4.65-10.53-6.58a44.78,44.78,0,0,0-9.81-4.4,24.56,24.56,0,0,0-8.77-1,18.58,18.58,0,0,0-6.44,1.7,17.92,17.92,0,0,0-4.65,3.3,1.7,1.7,0,0,1,.25-.28c.17-.18.43-.45.78-.79a16.25,16.25,0,0,1,3.53-2.41,18.48,18.48,0,0,1,6.5-1.81,24.69,24.69,0,0,1,8.9.91A45.18,45.18,0,0,1,225.2,349c3.39,1.93,6.84,4.27,10.56,6.55a51.84,51.84,0,0,0,12.33,5.82,23.69,23.69,0,0,0,14.36,0c4.79-1.5,9-4.17,12.92-6.82A103.36,103.36,0,0,1,287,347.25a30,30,0,0,1,11.92-3.52,18.69,18.69,0,0,1,5.64.56,19.28,19.28,0,0,1,4.79,2.11c2.84,1.75,5.1,3.74,7.25,5.23a48.05,48.05,0,0,0,5.67,3.61,5.79,5.79,0,0,0,4.1.38C327.3,355.35,327.74,355.08,327.76,355.12Z" style="fill:#fafafa"></path><path d="M270.61,412.29a2.64,2.64,0,0,1-.45-.35l-1.24-1.09-4.5-4a79.57,79.57,0,0,0-16.15-11.43A41.5,41.5,0,0,0,238,391.88a32.3,32.3,0,0,0-8.84-.56,26.5,26.5,0,0,0-5.89,1.11c-1.35.42-2.08.72-2.1.67a2.87,2.87,0,0,1,.51-.25,15.46,15.46,0,0,1,1.53-.61,24.37,24.37,0,0,1,5.91-1.29,31.69,31.69,0,0,1,9,.46A40.34,40.34,0,0,1,248.5,395a74.09,74.09,0,0,1,16.16,11.62c1.89,1.71,3.38,3.14,4.4,4.13l1.17,1.16A2.78,2.78,0,0,1,270.61,412.29Z" style="fill:#fafafa"></path><path d="M340.9,424.1a15.12,15.12,0,0,0-1.87-2.75,13.52,13.52,0,0,0-8-3.91,19.85,19.85,0,0,0-6.24.06,29.49,29.49,0,0,0-6.84,2.2c-2.33,1-4.7,2.29-7.18,3.56a51.25,51.25,0,0,1-7.93,3.44,35.11,35.11,0,0,1-4.26,1.1,37.21,37.21,0,0,1-4.25.5,18.15,18.15,0,0,1-2.08.07c-.69,0-1.37,0-2,0-1.35-.12-2.67-.19-3.93-.43a37.1,37.1,0,0,1-12.83-4.5,34.45,34.45,0,0,1-7.3-5.55c-.79-.75-1.29-1.43-1.68-1.85a6.3,6.3,0,0,1-.54-.68,5.86,5.86,0,0,1,.62.61c.41.39.94,1.05,1.74,1.77a36.27,36.27,0,0,0,7.34,5.38,37.27,37.27,0,0,0,12.72,4.34c1.25.23,2.56.3,3.88.41.67,0,1.34,0,2,0a17.65,17.65,0,0,0,2.05-.08,35.78,35.78,0,0,0,4.18-.5,33.7,33.7,0,0,0,4.2-1.09,50.49,50.49,0,0,0,7.86-3.4c2.48-1.26,4.86-2.52,7.22-3.54a29.4,29.4,0,0,1,7-2.19,20,20,0,0,1,6.37,0,13.38,13.38,0,0,1,8.08,4.14l.49.59a5.48,5.48,0,0,1,.37.57,4.48,4.48,0,0,1,.52.92A7.11,7.11,0,0,1,340.9,424.1Z" style="fill:#fafafa"></path><path d="M347.48,441.08a1.71,1.71,0,0,1-.37,0l-1.07-.14a28.8,28.8,0,0,0-4.13-.21,34.86,34.86,0,0,0-6.49.83,48.16,48.16,0,0,0-8.23,2.7,93.38,93.38,0,0,0-9.43,4.68c-3.3,1.85-6.8,3.91-10.59,5.89a60.32,60.32,0,0,1-12.44,5,34.56,34.56,0,0,1-14.36.64,56.73,56.73,0,0,1-13.74-4.28c-4.27-1.87-8.24-4-12-5.92-7.5-4-14.59-7.09-20.87-8.53a41.73,41.73,0,0,0-8.58-1.15,30.67,30.67,0,0,0-6.5.59,23,23,0,0,0-2.32.58,12.74,12.74,0,0,0-1.66.56l-1,.37-.35.11.33-.16,1-.42a12.5,12.5,0,0,1,1.66-.61,21.51,21.51,0,0,1,2.32-.63,30.44,30.44,0,0,1,6.55-.68,41.48,41.48,0,0,1,8.66,1.08c6.33,1.41,13.48,4.46,21,8.47,3.8,1.95,7.77,4,12,5.88a56.8,56.8,0,0,0,13.63,4.23,34.19,34.19,0,0,0,14.14-.63A59.73,59.73,0,0,0,307,454.37c3.78-1.95,7.28-4,10.61-5.83a91.41,91.41,0,0,1,9.49-4.65,49.22,49.22,0,0,1,8.31-2.65,33.74,33.74,0,0,1,6.55-.74,26.57,26.57,0,0,1,4.15.3l1.06.2Z" style="fill:#fafafa"></path><path d="M389.85,339.49a4.8,4.8,0,0,1-.49.62,17.16,17.16,0,0,0-1.39,1.76,31.93,31.93,0,0,0-3.73,7.35c-1.27,3.25-2.36,7.3-4.22,11.57A25.75,25.75,0,0,1,376.2,367a19.26,19.26,0,0,1-6.2,4.82,27.79,27.79,0,0,1-14.83,2.44,46.93,46.93,0,0,1-12-3c-3.29-1.25-5.87-2.45-7.64-3.28l-2-1a3.69,3.69,0,0,1-.69-.38,5.3,5.3,0,0,1,.74.28l2.07.89c1.8.77,4.4,1.92,7.68,3.12a47.82,47.82,0,0,0,11.89,2.84,27.56,27.56,0,0,0,14.55-2.43,18.68,18.68,0,0,0,6.05-4.68,25.51,25.51,0,0,0,3.77-6.1c1.87-4.22,3-8.26,4.32-11.52a30,30,0,0,1,3.91-7.33,13.94,13.94,0,0,1,1.47-1.72A5.47,5.47,0,0,1,389.85,339.49Z" style="fill:#fafafa"></path><path d="M400.85,355c-.09,0-.18-.36-.5-.85a4.08,4.08,0,0,0-3.92-1.8c-.58.08-.93.25-1,.18s.26-.35.89-.54a3.79,3.79,0,0,1,4.33,2C400.94,354.53,400.9,355,400.85,355Z" style="fill:#fafafa"></path><path d="M398.82,348.41a3.69,3.69,0,0,1,.74.26,9.16,9.16,0,0,1,1.92,1.21,12.44,12.44,0,0,1,4,7.2,19.88,19.88,0,0,1,.12,5.75,48.4,48.4,0,0,1-1.29,6.45A139.71,139.71,0,0,1,400,383.71a46.9,46.9,0,0,1-7.22,13.21,31.15,31.15,0,0,1-9.42,7.87,26.39,26.39,0,0,1-4.39,1.79,22.28,22.28,0,0,1-3.5.72l-1.3.12h-1l-.78,0a3.44,3.44,0,0,1,.78-.07l.95-.06,1.28-.16a23.58,23.58,0,0,0,3.44-.79,26.51,26.51,0,0,0,4.3-1.85,31.34,31.34,0,0,0,9.23-7.84,47,47,0,0,0,7.1-13.09,146.07,146.07,0,0,0,4.29-14.36,49.3,49.3,0,0,0,1.33-6.39,19.6,19.6,0,0,0-.05-5.64,12.42,12.42,0,0,0-3.74-7.1A11.23,11.23,0,0,0,398.82,348.41Z" style="fill:#fafafa"></path><path d="M393,327a18.84,18.84,0,0,0-4.54,0,18.51,18.51,0,0,0-4.28,1.54A8.22,8.22,0,0,1,393,327Z" style="fill:#fafafa"></path><path d="M183.63,383.85a7.08,7.08,0,0,1-2.46.68,11.75,11.75,0,0,1-6.76-1.47,17.52,17.52,0,0,1-3.91-2.83,24,24,0,0,1-3.49-4.3c-2.17-3.24-3.95-7.14-6.49-10.78a32.56,32.56,0,0,0-9-8.53,33.91,33.91,0,0,0-9.31-4.12,33.18,33.18,0,0,0-6.8-1.12c-1.63-.09-2.54-.07-2.54-.12a3.44,3.44,0,0,1,.66-.05,17.58,17.58,0,0,1,1.89,0,30.8,30.8,0,0,1,6.89,1,33.49,33.49,0,0,1,9.47,4.07,32.67,32.67,0,0,1,9.2,8.64c2.58,3.7,4.35,7.61,6.47,10.82a25,25,0,0,0,3.39,4.25,17,17,0,0,0,3.79,2.81,11.66,11.66,0,0,0,6.56,1.59A17.9,17.9,0,0,0,183.63,383.85Z" style="fill:#fafafa"></path><path d="M197,331.22a1.91,1.91,0,0,1-.55,0l-1.59-.18c-.68-.08-1.52-.19-2.49-.39s-2.07-.36-3.27-.68-2.52-.62-3.91-1.07-2.85-.95-4.39-1.51a66.14,66.14,0,0,1-18.35-10.7c-1.25-1.07-2.45-2.06-3.48-3.09s-2-2-2.85-2.88-1.57-1.76-2.21-2.51a24.8,24.8,0,0,1-1.56-2l-.94-1.29a2.08,2.08,0,0,1-.3-.47,2.77,2.77,0,0,1,.38.41l1,1.22c.43.54,1,1.19,1.63,1.92s1.37,1.58,2.25,2.44,1.8,1.85,2.88,2.82,2.25,2,3.49,3A68.94,68.94,0,0,0,181,326.91c1.52.57,3,1.14,4.35,1.55s2.68.81,3.87,1.12,2.28.54,3.24.75,1.78.37,2.47.48l1.56.28A2.21,2.21,0,0,1,197,331.22Z" style="fill:#fafafa"></path><path d="M198.14,398.8c-.1,0,.08-1.39-.11-3.6a24.57,24.57,0,0,0-.63-3.84,29.93,29.93,0,0,0-1.54-4.49,28.91,28.91,0,0,0-2.33-4.15,21.43,21.43,0,0,0-2.49-3c-1.58-1.55-2.8-2.24-2.74-2.33a3.66,3.66,0,0,1,.87.45,7.93,7.93,0,0,1,1,.64,11.5,11.5,0,0,1,1.17,1,20,20,0,0,1,2.64,3,25.8,25.8,0,0,1,2.4,4.21,26.63,26.63,0,0,1,1.54,4.59,22.3,22.3,0,0,1,.53,3.92c0,.57,0,1.08,0,1.52a8.82,8.82,0,0,1-.09,1.15A3.31,3.31,0,0,1,198.14,398.8Z" style="fill:#fafafa"></path><path d="M304.89,369.28a1.56,1.56,0,0,1-.51,0l-1.46-.06-1.06-.06c-.38,0-.79-.1-1.24-.16a28.17,28.17,0,0,1-3-.51l-1.74-.38c-.6-.14-1.22-.36-1.86-.54-1.29-.35-2.62-.89-4-1.43A44.58,44.58,0,0,1,274.09,355a41.88,41.88,0,0,1-2.7-3.31c-.39-.54-.79-1.05-1.13-1.57l-.95-1.51c-.63-.95-1.06-1.89-1.49-2.68-.2-.41-.4-.77-.56-1.13s-.29-.67-.41-1l-.55-1.36a1.54,1.54,0,0,1-.15-.48,2.46,2.46,0,0,1,.25.44l.63,1.31.45,1c.17.34.39.7.6,1.09.45.78.9,1.7,1.55,2.62l1,1.48c.34.51.76,1,1.15,1.54.77,1.08,1.73,2.12,2.7,3.25a49.63,49.63,0,0,0,7.27,6.38,50.69,50.69,0,0,0,8.44,4.71c1.39.54,2.69,1.1,4,1.46.63.19,1.24.41,1.83.56l1.72.41c1.09.3,2.11.42,3,.58.44.07.85.16,1.23.2l1.05.11,1.45.15A2.28,2.28,0,0,1,304.89,369.28Z" style="fill:#263238"></path><path d="M214.32,297.2a.85.85,0,0,1-.06.27l-.22.78c-.21.72-.5,1.71-.88,3-.19.65-.41,1.36-.64,2.14s-.37,1.67-.58,2.6-.43,1.93-.67,3-.35,2.2-.55,3.38-.37,2.43-.56,3.73-.23,2.66-.36,4.07c-.06.7-.12,1.42-.18,2.14s-.05,1.47-.08,2.22c0,1.51-.08,3-.13,4.64a163.09,163.09,0,0,0,1.51,20.59A205.27,205.27,0,0,0,215,370c.83,3.07,1.56,6,2.4,8.7.41,1.35.8,2.66,1.18,3.92s.8,2.44,1.18,3.58c.72,2.29,1.47,4.34,2.11,6.13s1.2,3.35,1.69,4.6.83,2.2,1.1,2.9l.27.76a.75.75,0,0,1,.07.27,1.85,1.85,0,0,1-.12-.25c-.09-.19-.19-.44-.32-.74-.29-.69-.68-1.65-1.19-2.86s-1.12-2.78-1.77-4.58-1.44-3.82-2.19-6.11l-1.22-3.58c-.38-1.26-.78-2.57-1.2-3.92-.87-2.7-1.61-5.63-2.46-8.7a199.24,199.24,0,0,1-4.07-20.32,158.43,158.43,0,0,1-1.48-20.66c0-1.59.11-3.15.16-4.66,0-.75,0-1.5.08-2.23s.14-1.44.2-2.15q.21-2.11.39-4.08l.6-3.74c.21-1.19.33-2.33.59-3.38l.71-3c.22-.93.43-1.79.62-2.59l.69-2.14c.41-1.25.74-2.23,1-2.94l.27-.76A1,1,0,0,1,214.32,297.2Z" style="fill:#263238"></path><path d="M265.42,272.52a16.4,16.4,0,0,1,3.77-10.35c.13.09-1.26,2.16-2.29,5S265.58,272.54,265.42,272.52Z" style="fill:#263238"></path><path d="M249.74,266.39a13.51,13.51,0,0,1,6.74-7.53c.09.14-1.86,1.37-3.71,3.46S249.88,266.47,249.74,266.39Z" style="fill:#263238"></path><path d="M283.64,274a48.27,48.27,0,0,1-.41-5.18,49,49,0,0,1-.38-5.18,18.41,18.41,0,0,1,.9,5.14A17.56,17.56,0,0,1,283.64,274Z" style="fill:#263238"></path><path d="M304.63,271.69A15.35,15.35,0,0,0,301,260.88c0-.05.59.35,1.3,1.18a11.77,11.77,0,0,1,2.06,3.71A11.61,11.61,0,0,1,305,270,4.12,4.12,0,0,1,304.63,271.69Z" style="fill:#263238"></path><g style="opacity:0.30000000000000004"><path d="M312,257.15l-5.34,1.78c3.06,18,7,39.63,10.1,57.63.9,5.27,1.88,10.75,5,15.08,3.31,4.56,8.82,7.55,10.85,12.8C326.21,315.94,319.64,285.33,312,257.15Z"></path></g><path d="M215.51,200.33s.16-4.68.07-8.84a3.09,3.09,0,0,1,3.1-3.15H253l5.71-11.84a6,6,0,0,1,5.07-2.76h15.73a6,6,0,0,1,4.88,2.49l6.06,8.37,11.16,1.86a4.33,4.33,0,0,1,3.61,4.07l2.09,47.63H215.51Z" style="fill:#DD5656"></path><rect x="264.75" y="176.18" width="12.56" height="5.94" style="fill:#e0e0e0"></rect><circle cx="269.42" cy="209.8" r="20.05" style="fill:#DD5656"></circle><circle cx="269.42" cy="209.8" r="20.05" style="opacity:0.6000000000000001"></circle><circle cx="269.42" cy="209.8" r="16.05" style="fill:#263238"></circle><path d="M291,209.8a2,2,0,0,1,0-.35l-.08-1c0-.23,0-.48,0-.75s-.09-.58-.14-.9a16.65,16.65,0,0,0-.46-2.22,20.65,20.65,0,0,0-2.4-5.69,21.35,21.35,0,0,0-25.63-9.08,21.93,21.93,0,0,0-2.78,1.22,23.57,23.57,0,0,0-2.61,1.68,24.42,24.42,0,0,0-2.41,2.05,24.79,24.79,0,0,0-2.09,2.47,20.84,20.84,0,0,0-3,5.87,21,21,0,0,0,0,13.43,20.59,20.59,0,0,0,3,5.87,23.7,23.7,0,0,0,2.09,2.47,23.14,23.14,0,0,0,2.41,2.05,19.79,19.79,0,0,0,5.39,2.91,21.38,21.38,0,0,0,25.63-9.09,20.65,20.65,0,0,0,2.4-5.69,16.53,16.53,0,0,0,.46-2.21c.05-.33.11-.63.14-.9s0-.53,0-.75c0-.43.06-.77.08-1a2,2,0,0,1,0-.35,1.88,1.88,0,0,1,0,.35c0,.26,0,.59,0,1,0,.23,0,.49,0,.76s-.08.58-.12.91a16.36,16.36,0,0,1-.41,2.24,20.46,20.46,0,0,1-2.35,5.79,21.68,21.68,0,0,1-14.61,10.3,21.73,21.73,0,0,1-11.43-.91,23,23,0,0,1-2.85-1.24,22.53,22.53,0,0,1-2.68-1.72,24.18,24.18,0,0,1-2.47-2.09,23.64,23.64,0,0,1-2.14-2.53,20.89,20.89,0,0,1-3.12-6,21.51,21.51,0,0,1,0-13.76,21.06,21.06,0,0,1,3.12-6,20,20,0,0,1,4.62-4.62,19.73,19.73,0,0,1,5.52-2.95,21.74,21.74,0,0,1,11.43-.92A21.76,21.76,0,0,1,288,198.72a20.58,20.58,0,0,1,2.35,5.79,16.21,16.21,0,0,1,.41,2.25c0,.32.1.63.12.9s0,.53,0,.76c0,.43,0,.77,0,1A1.88,1.88,0,0,1,291,209.8Z" style="fill:#263238"></path><path d="M263.73,220.9c-.11.28-2.06-.15-4.24-2.38a13,13,0,0,1-2.84-4.59,12.69,12.69,0,0,1,2.26-12.75,12.86,12.86,0,0,1,4.24-3.34c2.81-1.35,4.79-1.09,4.8-.79s-1.68.82-3.87,2.37a14.52,14.52,0,0,0-3.29,3.24,11.79,11.79,0,0,0-1.86,10.52,14.32,14.32,0,0,0,2,4.17C262.44,219.56,263.94,220.55,263.73,220.9Z" style="fill:#e0e0e0"></path><path d="M252.16,191a6.86,6.86,0,0,1-1.25.62,15.57,15.57,0,0,1-1.51.61c-.59.22-1.27.48-2,.69a41.13,41.13,0,0,1-5.47,1.29,49.49,49.49,0,0,1-6.86.6,50.52,50.52,0,0,1-6.87-.46,41,41,0,0,1-5.5-1.18,21.18,21.18,0,0,1-2.06-.65,15.22,15.22,0,0,1-1.52-.57,6.64,6.64,0,0,1-1.26-.58,7,7,0,0,1,1.33.39c.42.15.93.32,1.54.49s1.29.4,2.07.57a46.7,46.7,0,0,0,5.46,1.05,48.84,48.84,0,0,0,13.59-.13,46.71,46.71,0,0,0,5.45-1.17c.77-.19,1.45-.43,2.05-.62s1.11-.36,1.53-.52A6.91,6.91,0,0,1,252.16,191Z" style="fill:#263238"></path><path d="M252.08,228a3.62,3.62,0,0,1,.19.79,6,6,0,0,1-.09,2.35,7.15,7.15,0,0,1-1.74,3.29,6.94,6.94,0,0,1-4.42,2.12c-1.84.25-3.84,0-6,.13s-4.39.36-6.79.51a23.55,23.55,0,0,1-7.56-.49,11.67,11.67,0,0,1-6.79-4.4,9.85,9.85,0,0,1-1.51-3.9,26.3,26.3,0,0,1-.32-4c0-2.61-.1-5.13-.15-7.53-.09-4.79-.16-9.11-.22-12.75s-.08-6.52-.11-8.6v-2.34a4.29,4.29,0,0,1,0-.82,4.77,4.77,0,0,1,.07.82c0,.58.06,1.36.1,2.33.07,2.09.16,5,.27,8.6s.21,8,.34,12.75c.06,2.4.12,4.92.18,7.53s.21,5.37,1.75,7.62a11.06,11.06,0,0,0,6.49,4.2,23.05,23.05,0,0,0,7.4.51c2.38-.14,4.66-.4,6.8-.46s4.14.16,5.92-.06a6.73,6.73,0,0,0,4.26-2,7,7,0,0,0,1.75-3.13,6.61,6.61,0,0,0,.19-2.29A7.69,7.69,0,0,1,252.08,228Z" style="fill:#263238"></path><path d="M234.25,230.05c-.15,0-.26-6.84-.26-15.28s.11-15.27.26-15.27.26,6.84.26,15.27S234.39,230.05,234.25,230.05Z" style="fill:#263238"></path><path d="M227.48,230.05c-.15,0-.26-6.84-.26-15.28s.11-15.27.26-15.27.26,6.84.26,15.27S227.62,230.05,227.48,230.05Z" style="fill:#263238"></path><path d="M239.73,229.48c-.15,0-.26-6.75-.26-15.06s.11-15.06.26-15.06.26,6.74.26,15.06S239.87,229.48,239.73,229.48Z" style="fill:#263238"></path><path d="M304.91,194s-.06-.32-.3-.81a3.61,3.61,0,0,0-1.67-1.53,8.43,8.43,0,0,0-3.42-.55l-4.37-.12c-3.1-.1-5.9-.22-7.93-.34a19,19,0,0,1-3.28-.29,21.36,21.36,0,0,1,3.29-.07c2,0,4.84.08,7.94.18l4.37.16a8.4,8.4,0,0,1,3.56.7,3.47,3.47,0,0,1,1.69,1.78C305,193.68,304.94,194,304.91,194Z" style="fill:#263238"></path><polygon points="189.98 230.91 165.64 286.66 200.02 307.08 210.31 244.66 189.98 230.91" style="fill:#ffbe9d"></polygon><path d="M189.85,205.55l17.2-25.91a7.49,7.49,0,0,1,9-2.79l18.26,7.39s-.24,5.68-5.2,4.92S214,186.43,214,186.43l-4.56,5.51Z" style="fill:#ffbe9d"></path><path d="M234.58,213.79l-7.52-19.54a5.64,5.64,0,0,0-5.89-3.59l-23.1,2.52-8.22,12.37a4.77,4.77,0,0,0-.79,2.82l1.34,32.94,14,17.37,6.1-14h0a9.57,9.57,0,0,0,5.23-11l-1.82-7.18,7.1-2.42s-.63,7.85,2.88,7.75S229.2,218,229.2,218,235.72,216.74,234.58,213.79Z" style="fill:#ffbe9d"></path><path d="M213.92,226.5s-.23-.16-.55-.54a3.9,3.9,0,0,1-.91-1.91,2.87,2.87,0,0,1,.23-1.5,3.31,3.31,0,0,1,1.12-1.33,12.71,12.71,0,0,1,3.42-1.7l.08,0,.08.51c-2.64,0-5-.07-6.76-.13a15.57,15.57,0,0,1-2.8-.2,14.31,14.31,0,0,1,2.8-.17c1.73,0,4.12,0,6.77,0H219l-1.49.5-.08,0a13.32,13.32,0,0,0-3.3,1.6,2.69,2.69,0,0,0-1.27,2.4,4.18,4.18,0,0,0,.72,1.83C213.8,226.25,214,226.48,213.92,226.5Z" style="fill:#eb996e"></path><path d="M221,224.08s.39-.26,1-.82a4.17,4.17,0,0,0,.86-1.2,5.71,5.71,0,0,0,.45-1.91,22.2,22.2,0,0,0-.26-5.2,30.51,30.51,0,0,0-.66-3,4.56,4.56,0,0,0-1.67-2.62,5.67,5.67,0,0,0-3.08-.63l-3.11-.15-5.27-.28-3.56-.24a6.21,6.21,0,0,1-1.3-.16,6.82,6.82,0,0,1,1.31,0l3.56.07,5.28.17,3.11.12c.54,0,1.09,0,1.67.1a3.45,3.45,0,0,1,1.69.62,5,5,0,0,1,1.86,2.91,28.51,28.51,0,0,1,.64,3.07,20.68,20.68,0,0,1,.15,5.32,5.8,5.8,0,0,1-.55,2,4.1,4.1,0,0,1-1,1.22,4.15,4.15,0,0,1-.82.54A1,1,0,0,1,221,224.08Z" style="fill:#eb996e"></path><path d="M204.62,201.25a9,9,0,0,1,1.52,0l4.13.07,6.14.17,3.63.12c.63,0,1.26,0,1.92.09a4.68,4.68,0,0,1,2,.57,4.38,4.38,0,0,1,1.42,1.52c.35.57.63,1.14.92,1.71a29.64,29.64,0,0,1,1.45,3.34,23.82,23.82,0,0,1,1.41,6,18.25,18.25,0,0,1-.05,4.15,8.74,8.74,0,0,1-.18,1.12c0,.25-.09.38-.11.38a30.53,30.53,0,0,0,0-5.61,24.68,24.68,0,0,0-1.49-5.89,32.94,32.94,0,0,0-1.45-3.28,7.38,7.38,0,0,0-2.16-3,8.17,8.17,0,0,0-3.67-.6l-3.62-.15-6.13-.28-4.13-.24A8.21,8.21,0,0,1,204.62,201.25Z" style="fill:#eb996e"></path><path d="M219.18,201.69a12.86,12.86,0,0,1,.78-5.11,6.58,6.58,0,0,1-.13,2.6A6.73,6.73,0,0,1,219.18,201.69Z" style="fill:#eb996e"></path><path d="M222.39,190.63a3.94,3.94,0,0,1-.93.22c-.6.11-1.48.25-2.56.39-2.18.3-5.19.56-8.49,1-.82.11-1.64.2-2.4.33a19.15,19.15,0,0,0-2.17.52,15.5,15.5,0,0,0-3.5,1.41,7.88,7.88,0,0,0-2.45,2.44,2.41,2.41,0,0,1,.39-.89,6.59,6.59,0,0,1,1.86-1.86,15,15,0,0,1,3.56-1.56,17.56,17.56,0,0,1,2.22-.56c.79-.15,1.6-.24,2.43-.34,3.32-.42,6.33-.62,8.51-.82A26,26,0,0,1,222.39,190.63Z" style="fill:#eb996e"></path><path d="M213.08,182.73c.14,0,.34.79.58,1.78s.44,1.8.3,1.85-.55-.7-.8-1.73S212.94,182.74,213.08,182.73Z" style="fill:#eb996e"></path><path d="M220.25,178.54a5.84,5.84,0,0,1,1.1.33c.71.24,1.73.61,3,1.11,2.56,1,6.15,2.47,10.31,4.26l.15.06v.16a5.12,5.12,0,0,1-1.46,3.63,4.94,4.94,0,0,1-3.93,1.34c-1.56-.07-3-.43-4.41-.62s-2.79-.44-4.1-.67-2.55-.49-3.71-.78l-3.24-.74.19-.07-3.63,4.32c-.41.46-.74.84-1,1.16a2.58,2.58,0,0,1-.38.38s.08-.17.29-.45l.93-1.23,3.5-4.42.07-.09.12,0,3.26.69c1.15.27,2.39.51,3.69.73l4.09.65c1.43.18,2.89.54,4.36.6a4.48,4.48,0,0,0,3.55-1.18,4.67,4.67,0,0,0,1.33-3.26l.15.22c-4.14-1.83-7.71-3.36-10.23-4.43l-3-1.24A7.62,7.62,0,0,1,220.25,178.54Z" style="fill:#eb996e"></path><path d="M370,309.43l-31-63.82-32.47-50.77a19.27,19.27,0,0,0-13-8.61c-8-1.35-19.41-2.88-23.79-1.54-4.69,1.43-1.31,4.68-1.31,4.68s5.22,1.07,12,2.33a10.73,10.73,0,0,1,7.18,4.9l1.56,2.51c3.65,5.89,4.06,10.36,4.92,19.45v4.9c-.84,4.47-8.14,7.44-15,7.61a77.16,77.16,0,0,0-11.71,1.21l1.62,0a18,18,0,0,0-13.16,4.57,7.58,7.58,0,0,0-2.18,2.94,3.65,3.65,0,0,0,.43,3.51,4.15,4.15,0,0,0,4.23,1,31.78,31.78,0,0,0,4.21-1.81c5.21-2.18,11.18-.8,16.54,1s10.86,3.95,16.47,3.26c3.41-.42,7.28-1.79,10,.31l3.24,3.06a21.66,21.66,0,0,1,3.35,8.64h0l21.07,88.6c7.56,1.23,15.36.33,24.19-6.6C365.67,331.85,370.63,320.1,370,309.43Z" style="fill:#ffbe9d"></path><path d="M299.48,205.26s-1.29-13.24-2-14.41-14.93-7.26-13.69-9.2,5-.33,7.83,1,10.3,4.62,12.07,6.64,4.66,14.05,4.66,14.05Z" style="fill:#ffbe9d"></path><path d="M283.82,181.65s.11.06.3.22l.8.69,3,2.7,0,0c1.84,1,4.19,2.24,6.9,3.76l2.09,1.21c.18.11.36.21.54.34a1.28,1.28,0,0,1,.5.53,5.12,5.12,0,0,1,.42,1.29,36,36,0,0,1,.56,5.54v-.06c.94,3.24,1.86,6.81,2.75,10.53,2.19,9.33,3.87,17.92,3.95,24.23a17.19,17.19,0,0,0,1.73,7.11,13.62,13.62,0,0,0,1.56,2.21l-.14-.1a4.06,4.06,0,0,1-.38-.37,9,9,0,0,1-1.22-1.64,16.72,16.72,0,0,1-1.91-7.18c-.18-6.3-1.91-14.81-4.1-24.14-.88-3.71-1.79-7.28-2.72-10.52v-.06a34.55,34.55,0,0,0-.51-5.45,5.09,5.09,0,0,0-.36-1.18c-.12-.3-.54-.48-.88-.71l-2.07-1.22-6.82-3.88h0l-2.94-2.79-.76-.75A1.61,1.61,0,0,1,283.82,181.65Z" style="fill:#eb996e"></path><path d="M293.32,203.7a5.42,5.42,0,0,1,.05,1.23c0,.79,0,1.93,0,3.33a28.93,28.93,0,0,0,.51,4.88,14.18,14.18,0,0,0,2.3,5.45,41.83,41.83,0,0,0,4.1,4.4c1.33,1.31,2.57,2.44,3.52,3.52a4.08,4.08,0,0,1,.95,1.71,6.82,6.82,0,0,1,.13,1.46,5.29,5.29,0,0,1,0,1.22,5.64,5.64,0,0,1-.15-1.21,7.44,7.44,0,0,0-.21-1.4,3.85,3.85,0,0,0-.95-1.54c-1-1-2.22-2.12-3.57-3.41a38.42,38.42,0,0,1-4.19-4.44,14.4,14.4,0,0,1-2.35-5.66,27.38,27.38,0,0,1-.41-5c0-1.42.08-2.56.15-3.35A5.83,5.83,0,0,1,293.32,203.7Z" style="fill:#eb996e"></path><path d="M270.65,237.57a9,9,0,0,0-.29-2.18c-.41-1.13-1.29-1.69-1.21-1.82s.3,0,.67.26a3.12,3.12,0,0,1,1.17,3.1C270.88,237.37,270.71,237.59,270.65,237.57Z" style="fill:#eb996e"></path><path d="M294.05,225.62s-.12.23-.41.58a11.82,11.82,0,0,1-1.38,1.37,17.44,17.44,0,0,1-5.53,3.21,17.65,17.65,0,0,1-6.32,1,12.83,12.83,0,0,1-1.93-.19,2.17,2.17,0,0,1-.69-.19c0-.09,1,.05,2.63,0A19.61,19.61,0,0,0,292,227.29C293.3,226.3,294,225.56,294.05,225.62Z" style="fill:#eb996e"></path><path d="M297.61,207.5a8.77,8.77,0,0,1-.93-1.27l-2.4-3.57-3.49-5.34-2.05-3.16a12.66,12.66,0,0,0-2.4-3.12,5.73,5.73,0,0,0-3.7-.85c-1.29,0-2.57.06-3.78,0a37.12,37.12,0,0,1-6.34-.9,33,33,0,0,1-4.13-1.26q-.72-.27-1.08-.45c-.25-.11-.37-.17-.36-.19a12.28,12.28,0,0,1,1.51.45c1,.3,2.37.72,4.14,1.09a39.94,39.94,0,0,0,6.28.78c1.2.05,2.44,0,3.75,0a6.17,6.17,0,0,1,4,.95,12.63,12.63,0,0,1,2.51,3.25c.7,1.1,1.38,2.16,2,3.18,1.27,2,2.42,3.83,3.4,5.4l2.26,3.66A8.89,8.89,0,0,1,297.61,207.5Z" style="fill:#eb996e"></path><path d="M319.6,289s-.07-.19-.17-.59-.26-1-.47-1.75c-.4-1.56-1-3.84-1.74-6.8-1.51-6-3.7-14.62-6.45-25.51h0a15.12,15.12,0,0,0-2-3.95,11,11,0,0,0-3.44-3.1h0a6,6,0,0,0-1.61-.82,7.5,7.5,0,0,0-1.84-.27,20.72,20.72,0,0,0-3.87.42,29.42,29.42,0,0,1-4.06.53,21.49,21.49,0,0,1-4.22-.28,52.48,52.48,0,0,1-8.49-2.3,57.88,57.88,0,0,0-8.86-2.49,17.94,17.94,0,0,0-9.43.58c-1.52.54-2.92,1.51-4.6,2a5.56,5.56,0,0,1-2.63.08,3.33,3.33,0,0,1-2.19-1.53,3.88,3.88,0,0,1-.39-2.67,5.58,5.58,0,0,1,1.19-2.41,15.87,15.87,0,0,1,4.1-3.42,18.3,18.3,0,0,1,10.48-2.53l0,.51-1.62,0v-.5c1.43-.18,3-.53,4.5-.7s3.08-.33,4.65-.42,3.14-.07,4.68-.25a25.22,25.22,0,0,0,4.62-.93,18.44,18.44,0,0,0,4.35-1.89,8.17,8.17,0,0,0,3.25-3.32,6.09,6.09,0,0,0,.37-1.09v-4.85l-.11-1.23-.25-2.47a45.11,45.11,0,0,0-1.9-10.23,38.89,38.89,0,0,0-4.89-8.93,10.45,10.45,0,0,0-3.87-3,21,21,0,0,0-4.79-1.22l-9.68-1.87-.08,0-.05-.05a5.13,5.13,0,0,1-1-1.38,2.5,2.5,0,0,1-.2-1.71A2.58,2.58,0,0,1,268,185.2c.24-.15.49-.27.73-.39l.77-.28a21.83,21.83,0,0,1,6.26-.51,111.27,111.27,0,0,1,12,1.18l-.16.44a19.09,19.09,0,0,1-3.64-2.58,1.68,1.68,0,0,1-.57-1.09.7.7,0,0,1,.11-.38l.19-.24a2,2,0,0,1,.46-.4,3.54,3.54,0,0,1,2.25-.29,16.8,16.8,0,0,1,4.07,1.36l3.77,1.76a77.93,77.93,0,0,1,7.17,3.7,15.26,15.26,0,0,1,1.63,1.13,6.8,6.8,0,0,1,.74.69,4.79,4.79,0,0,1,.53.85,28.47,28.47,0,0,1,1.41,3.55l0,0c.71,1,1.33,1.94,2,2.91l1.83,2.88L313,205l6.48,10.18,10.43,16.4L336.55,242l1.72,2.74c.38.62.56.94.56.94s-.22-.3-.62-.91-1-1.53-1.76-2.7l-6.71-10.39-10.51-16.34-6.52-10.16-3.55-5.53-1.84-2.87c-.62-1-1.24-2-1.94-2.89l0,0v0a26.69,26.69,0,0,0-1.39-3.49,4.37,4.37,0,0,0-.49-.77,5.13,5.13,0,0,0-.68-.63,14.73,14.73,0,0,0-1.58-1.09,78.33,78.33,0,0,0-7.14-3.67l-3.77-1.74a16,16,0,0,0-3.95-1.32,3,3,0,0,0-1.94.23c-.11.11-.27.17-.35.31l-.15.18a.37.37,0,0,0,0,.14c0,.22.23.52.45.76a19.34,19.34,0,0,0,3.54,2.49l1,.6-1.15-.16a113.51,113.51,0,0,0-12-1.16,22,22,0,0,0-6.11.49,3.1,3.1,0,0,0-2.23,1.68,3,3,0,0,0,1,2.59l-.12-.07,9.68,1.87,2.46.47a11.56,11.56,0,0,1,2.44.78,11,11,0,0,1,4.07,3.16,23,23,0,0,1,1.43,2.16c.45.72.9,1.44,1.34,2.19a26.09,26.09,0,0,1,2.2,4.73,45.7,45.7,0,0,1,1.93,10.34l.24,2.48.12,1.23v5a5.84,5.84,0,0,1-.41,1.22,8.59,8.59,0,0,1-3.45,3.54,19.07,19.07,0,0,1-4.47,1.95,26.54,26.54,0,0,1-4.71.94c-1.59.19-3.17.15-4.71.25s-3.09.22-4.61.42-3,.5-4.55.69v-.5l1.61,0,0,.51a17.77,17.77,0,0,0-10.2,2.45,15.46,15.46,0,0,0-4,3.29,5.35,5.35,0,0,0-1.1,2.21,3.46,3.46,0,0,0,.33,2.33,2.88,2.88,0,0,0,1.89,1.3,5,5,0,0,0,2.39-.07c1.59-.42,3-1.38,4.57-1.95a18.23,18.23,0,0,1,9.66-.58,57.9,57.9,0,0,1,8.92,2.52,53.17,53.17,0,0,0,8.42,2.31,21.52,21.52,0,0,0,4.14.28,28,28,0,0,0,4-.51,20.38,20.38,0,0,1,3.95-.41,7.84,7.84,0,0,1,1.93.29,5.79,5.79,0,0,1,1.73.89l0,0a11.54,11.54,0,0,1,3.54,3.22,15.44,15.44,0,0,1,2,4h0l6.3,25.54,1.66,6.83c.18.77.32,1.35.42,1.76S319.6,289,319.6,289Z" style="fill:#eb996e"></path></g><g id="Plants--inject-53"><path d="M431.2,404.79c-2.69,3.63-7.69,2.27-10,0s-3.17-5.62-4-8.77c-1.86-7.18-3.73-14.71-2-21.93a12.27,12.27,0,0,1,2.95-5.87,6.37,6.37,0,0,1,6.07-1.85c2.52.74,4,3.27,5.11,5.66a52.08,52.08,0,0,1,4.56,22.51c-.08,3.6-.6,7.37-2.71,10.29" style="fill:#DD5656"></path><g style="opacity:0.2"><path d="M431.2,404.79c-2.69,3.63-7.69,2.27-10,0s-3.17-5.62-4-8.77c-1.86-7.18-3.73-14.71-2-21.93a12.27,12.27,0,0,1,2.95-5.87,6.37,6.37,0,0,1,6.07-1.85c2.52.74,4,3.27,5.11,5.66a52.08,52.08,0,0,1,4.56,22.51c-.08,3.6-.6,7.37-2.71,10.29"></path></g><path d="M421,423.27c-4.18-2.3-9.16-2.72-13.88-2.06-2.54.35-5.19,1-7,2.89s-2.18,5.18-.25,6.86a6.64,6.64,0,0,0,4.31,1.22c3.68.05,7.78-.49,10.66,1.8,1.65,1.31,2.71,3.44,4.7,4.11a4.75,4.75,0,0,0,5.28-2.18,8.11,8.11,0,0,0,.74-6A9.1,9.1,0,0,0,421,423.27Z" style="fill:#DD5656"></path><path d="M438.17,410.29c-2.73-3.42-3.13-8.3-1.77-12.44A23.9,23.9,0,0,1,444,387.4,39.6,39.6,0,0,1,457.35,380a14.07,14.07,0,0,1,5.94-.84,6.19,6.19,0,0,1,4.88,3.13c1.31,2.67-.1,5.83-1.6,8.4a99.88,99.88,0,0,1-9,12.91c-2.67,3.27-5.72,6.48-9.7,7.88s-8.07,1.12-10.09-1.67" style="fill:#DD5656"></path><path d="M429.9,460.59a8.1,8.1,0,0,1-.19-1.69c-.09-1.22-.19-2.76-.32-4.6s-.39-4.24-.86-6.75a51.26,51.26,0,0,0-2.24-8,29.56,29.56,0,0,0-3.86-7.29,15.13,15.13,0,0,0-5-4.39,14.21,14.21,0,0,0-4.29-1.46,7.7,7.7,0,0,1-1.66-.29,7.61,7.61,0,0,1,1.7,0,13.06,13.06,0,0,1,4.47,1.29,15.2,15.2,0,0,1,5.3,4.44,28.48,28.48,0,0,1,4,7.44,48.09,48.09,0,0,1,2.22,8.14,59,59,0,0,1,.72,6.83c.09,2,.1,3.53.1,4.62A7.38,7.38,0,0,1,429.9,460.59Z" style="fill:#263238"></path><path d="M429.68,457.05a3.13,3.13,0,0,1,0-.78c0-.59,0-1.32.07-2.23,0-1.93.13-4.74.11-8.2,0-6.92-.33-16.48-1.2-27s-2.17-20-3.39-26.82c-.29-1.71-.58-3.25-.86-4.59s-.49-2.51-.71-3.46-.34-1.6-.46-2.18a3.61,3.61,0,0,1-.12-.77,3.34,3.34,0,0,1,.25.74c.16.56.35,1.28.59,2.15s.53,2.09.83,3.44.64,2.87,1,4.58a251.54,251.54,0,0,1,3.6,26.86c.87,10.54,1.14,20.13,1,27.07-.06,3.47-.2,6.27-.34,8.2-.08.91-.15,1.65-.2,2.23A3.62,3.62,0,0,1,429.68,457.05Z" style="fill:#263238"></path><path d="M430.12,438.58a14.12,14.12,0,0,1,.08-2.33,60.78,60.78,0,0,1,.88-6.29A87.14,87.14,0,0,1,437.5,410a58,58,0,0,1,11.76-17.29,28.93,28.93,0,0,1,2.72-2.4c.42-.33.79-.66,1.16-.93l1.05-.68a13.13,13.13,0,0,1,2-1.2,69,69,0,0,0-6.58,5.56,61.22,61.22,0,0,0-11.47,17.23A87.63,87.63,0,0,0,434,421a90.81,90.81,0,0,0-2.42,9.05c-.55,2.61-.89,4.74-1.1,6.22A14.26,14.26,0,0,1,430.12,438.58Z" style="fill:#263238"></path><path d="M102.06,428.77c1.14-4.52-1.85-9-5.19-12.3s-7.33-6.18-9.08-10.51c-2.84-7,.87-16.12-3.94-22-2.83-3.43-7.88-4.55-10.39-8.22-1.32-1.93-1.76-4.3-2.29-6.57a66.92,66.92,0,0,0-16.8-31,58.1,58.1,0,0,0,6.69,30c2,3.67,4.35,7.25,5,11.36,1.08,6.67-2.61,13.57-.93,20.12,1.92,7.49,10.37,12.46,10.81,20.18.38,6.52-5.28,12.28-4.82,18.8a17.66,17.66,0,0,0,3,7.73c5.09,8.36,12.54,14.09,23.78,13.84l13.76.4Z" style="fill:#DD5656"></path><g style="opacity:0.30000000000000004"><path d="M102.06,428.77c1.14-4.52-1.85-9-5.19-12.3s-7.33-6.18-9.08-10.51c-2.84-7,.87-16.12-3.94-22-2.83-3.43-7.88-4.55-10.39-8.22-1.32-1.93-1.76-4.3-2.29-6.57a66.92,66.92,0,0,0-16.8-31,58.1,58.1,0,0,0,6.69,30c2,3.67,4.35,7.25,5,11.36,1.08,6.67-2.61,13.57-.93,20.12,1.92,7.49,10.37,12.46,10.81,20.18.38,6.52-5.28,12.28-4.82,18.8a17.66,17.66,0,0,0,3,7.73c5.09,8.36,12.54,14.09,23.78,13.84l13.76.4Z"></path></g><path d="M116.71,460.75c9-5.4,11.44-21.63,7.64-31.37s-10.42-18.62-11.49-29c-.82-8,1.75-16.22-.16-24-2.57-10.54-12.92-18.66-12.87-29.51,0-6.08,3.47-11.83,3.16-17.91-.38-7.46-6.14-13.34-9.73-19.89-5.48-10-5.91-21.92-7.83-33.18S79.15,252.51,69.12,247c-1.42,9.58-3.9,16.15-3,29.12.31,4.66,5.78,13.54,6.57,23.75.47,6.1.81,12.21,1.22,18.31.4,5.94.82,12,3,17.53,1.66,4.26,4.3,8.11,5.54,12.5,2.32,8.26-.62,17.24,1.27,25.61,1.6,7.1,6.55,13.18,7.59,20.38,1.47,10.11-5,20.66-1.61,30.29,1.69,4.78,5.65,8.61,6.8,13.54.89,3.84,0,7.9.77,11.75,1.3,6.21,13.17,11.37,19.5,10.95" style="fill:#DD5656"></path><path d="M71.65,256.51a2.19,2.19,0,0,1,.13.53c.08.39.18.91.3,1.55.27,1.37.58,3.42,1.1,6s2,5.51,3.14,9.1,2.42,7.69,3.5,12.31,2,9.73,3,15.21,2,11.34,4.72,17c1.28,2.85,2.73,5.73,3.84,8.85a39.75,39.75,0,0,1,2,9.9,201,201,0,0,0,2.76,20.85c2.81,14.17,5.49,27.66,7.92,39.94s4.78,23.29,6.69,32.58,3.38,16.73,4.44,22c.49,2.55.88,4.56,1.16,6,.12.65.21,1.17.28,1.57a3,3,0,0,1,.07.53,1.9,1.9,0,0,1-.16-.52l-.36-1.54c-.32-1.42-.76-3.41-1.33-5.95-1.12-5.23-2.73-12.71-4.71-21.92s-4.28-20.3-6.87-32.54-5.16-25.78-8-39.95A195.19,195.19,0,0,1,92.54,337a39.58,39.58,0,0,0-2-9.7c-1.08-3.06-2.51-5.93-3.78-8.79-2.76-5.71-3.75-11.73-4.71-17.18s-1.82-10.59-2.87-15.19-2.2-8.73-3.37-12.29-2.48-6.55-3-9.18-.73-4.66-.94-6c-.09-.65-.16-1.17-.21-1.57A2.72,2.72,0,0,1,71.65,256.51Z" style="fill:#263238"></path></g></svg>
